<svg width="41" height="40" viewBox="0 0 41 40" fill="none" xmlns="http://www.w3.org/2000/svg">
<path d="M4.70215 20.625V34.8437C4.70215 35.5351 5.26074 36.0937 5.95215 36.0937H8.49121V19.375H5.95215C5.26074 19.375 4.70215 19.9336 4.70215 20.625ZM34.9326 20.8476C35.5889 19.9805 35.9521 18.918 35.9521 17.8125C35.9521 16.0586 34.9717 14.3945 33.3936 13.4765C32.9873 13.2382 32.5247 13.1128 32.0537 13.1133H22.6826L22.917 8.31248C22.9756 7.15233 22.5654 6.05076 21.7646 5.21092C21.3739 4.79656 20.9021 4.46693 20.3787 4.2425C19.8552 4.01806 19.2912 3.9036 18.7217 3.90623C16.6904 3.90623 14.8936 5.27342 14.3545 7.23045L11.0029 19.3711L10.9912 36.0898H29.4326C29.7959 36.0898 30.1436 36.0195 30.4678 35.8789C32.3271 35.0859 33.5264 33.2695 33.5264 31.2539C33.5264 30.7617 33.4561 30.2773 33.3154 29.8086C33.9717 28.9414 34.335 27.8789 34.335 26.7734C34.335 26.2812 34.2646 25.7969 34.124 25.3281C34.7803 24.4609 35.1436 23.3984 35.1436 22.293C35.1436 21.8008 35.0732 21.3164 34.9326 20.8476ZM32.374 19.4922L31.5186 20.2344L32.0654 21.2305C32.2443 21.5573 32.3371 21.9243 32.335 22.2969C32.335 22.9414 32.0576 23.5547 31.5693 23.9765L30.7139 24.7187L31.2568 25.7109C31.4357 26.0378 31.5285 26.4047 31.5264 26.7773C31.5264 27.4219 31.249 28.0351 30.7607 28.457L29.9053 29.1992L30.4482 30.1914C30.6271 30.5182 30.7199 30.8852 30.7178 31.2578C30.7178 32.1328 30.2021 32.9219 29.4053 33.2812H13.8037V19.7969C14.5303 17.1719 15.6162 13.2344 17.0654 7.98045C17.1667 7.6201 17.3821 7.30231 17.6793 7.07481C17.9766 6.84731 18.3396 6.72236 18.7139 6.71873C19.0068 6.71483 19.2998 6.80467 19.5381 6.98045C19.9248 7.26951 20.1318 7.70701 20.1084 8.17186L19.7334 15.9219H32.0146C32.71 16.3476 33.1396 17.0664 33.1396 17.8125C33.1396 18.457 32.8623 19.0703 32.374 19.4922Z" fill="#4B4B4B"/>
</svg>
