<svg width="40" height="40" viewBox="0 0 40 40" fill="none" xmlns="http://www.w3.org/2000/svg">
<path d="M29.0366 36.0398C28.1692 36.0498 27.3113 35.859 26.5299 35.4823C25.7485 35.1056 25.0649 34.5532 24.5325 33.8683C24.0001 33.1835 23.6334 32.3847 23.4611 31.5345C23.2888 30.6844 23.3155 29.8059 23.5392 28.9678L13.3667 23.1535C12.5086 23.9397 11.4296 24.4432 10.2759 24.5958C9.1221 24.7484 7.9493 24.5428 6.91627 24.0068C5.88325 23.4708 5.03989 22.6303 4.5004 21.5991C3.96091 20.5678 3.75134 19.3957 3.90008 18.2415C4.04882 17.0872 4.54867 16.0065 5.33196 15.1458C6.11525 14.285 7.14414 13.6857 8.27931 13.4291C9.41447 13.1725 10.6011 13.2709 11.6785 13.711C12.7558 14.1511 13.6719 14.9117 14.3027 15.8898L23.5376 10.6101C23.4181 10.1587 23.3548 9.69423 23.3491 9.22727C23.3378 7.90815 23.7814 6.62542 24.6052 5.59507C25.4289 4.56472 26.5826 3.84968 27.8718 3.57036C29.1611 3.29103 30.5072 3.46448 31.6835 4.06149C32.8599 4.65851 33.7946 5.64262 34.3303 6.84814C34.866 8.05365 34.9699 9.40692 34.6246 10.6801C34.2793 11.9533 33.5058 13.0686 32.4344 13.8382C31.363 14.6079 30.0592 14.9848 28.7424 14.9057C27.4256 14.8265 26.1763 14.296 25.2049 13.4035L15.2111 19.1154C15.1997 19.5379 15.1412 19.9555 15.034 20.3634L25.2065 26.176C25.8873 25.5512 26.7104 25.1019 27.6042 24.8672C28.498 24.6326 29.4355 24.6195 30.3355 24.8292C31.2355 25.039 32.0707 25.4651 32.7687 26.0708C33.4667 26.6764 34.0063 27.4432 34.3408 28.3046C34.6753 29.1661 34.7946 30.0961 34.6882 31.0141C34.5818 31.932 34.2531 32.8102 33.7305 33.5723C33.2079 34.3344 32.5072 34.9575 31.6892 35.3875C30.8712 35.8175 29.9607 36.0414 29.0366 36.0398ZM29.0366 27.9148C28.3901 27.9148 27.7702 28.1716 27.313 28.6287C26.8559 29.0858 26.5991 29.7058 26.5991 30.3523C26.5991 30.9987 26.8559 31.6187 27.313 32.0758C27.7702 32.533 28.3901 32.7898 29.0366 32.7898C29.6831 32.7898 30.3031 32.533 30.7602 32.0758C31.2173 31.6187 31.4741 30.9987 31.4741 30.3523C31.4741 29.7058 31.2173 29.0858 30.7602 28.6287C30.3031 28.1716 29.6831 27.9148 29.0366 27.9148ZM9.53661 16.5398C8.89014 16.5398 8.27016 16.7966 7.81304 17.2537C7.35592 17.7108 7.09911 18.3308 7.09911 18.9773C7.09911 19.6237 7.35592 20.2437 7.81304 20.7008C8.27016 21.158 8.89014 21.4148 9.53661 21.4148C10.1831 21.4148 10.8031 21.158 11.2602 20.7008C11.7173 20.2437 11.9741 19.6237 11.9741 18.9773C11.9741 18.3308 11.7173 17.7108 11.2602 17.2537C10.8031 16.7966 10.1831 16.5398 9.53661 16.5398ZM29.0366 6.78977C28.7165 6.78977 28.3995 6.85282 28.1038 6.97532C27.8081 7.09781 27.5394 7.27736 27.313 7.5037C27.0867 7.73004 26.9071 7.99875 26.7847 8.29448C26.6622 8.59021 26.5991 8.90718 26.5991 9.22727C26.5991 9.54737 26.6622 9.86433 26.7847 10.1601C26.9071 10.4558 27.0867 10.7245 27.313 10.9508C27.5394 11.1772 27.8081 11.3567 28.1038 11.4792C28.3995 11.6017 28.7165 11.6648 29.0366 11.6648C29.6831 11.6648 30.3031 11.408 30.7602 10.9508C31.2173 10.4937 31.4741 9.87374 31.4741 9.22727C31.4741 8.58081 31.2173 7.96082 30.7602 7.5037C30.3031 7.04658 29.6831 6.78977 29.0366 6.78977Z" fill="#4B4B4B"/>
</svg>
