<svg width="41" height="34" viewBox="0 0 41 34" fill="none" xmlns="http://www.w3.org/2000/svg">
<g clip-path="url(#clip0_850_118)">
<path d="M20.5991 3.03979C17.5634 3.03979 14.7249 3.53752 12.0835 4.53296C9.44213 5.5284 7.34391 6.87118 5.78885 8.56128C4.23379 10.2514 3.45626 12.0776 3.45626 14.0398C3.45626 15.644 3.98826 17.1729 5.05225 18.6267C6.11623 20.0805 7.61549 21.3373 9.55001 22.3972L11.492 23.4714L10.8893 25.5339C10.5322 26.8373 10.0113 28.0691 9.3268 29.2292C11.5887 28.3269 13.6348 27.1023 15.4652 25.5554L16.425 24.739L17.6973 24.8679C18.7241 24.9825 19.6914 25.0398 20.5991 25.0398C23.6348 25.0398 26.4734 24.5421 29.1147 23.5466C31.7561 22.5512 33.8543 21.2084 35.4094 19.5183C36.9645 17.8282 37.742 16.002 37.742 14.0398C37.742 12.0776 36.9645 10.2514 35.4094 8.56128C33.8543 6.87118 31.7561 5.5284 29.1147 4.53296C26.4734 3.53752 23.6348 3.03979 20.5991 3.03979ZM40.5991 14.0398C40.5991 16.532 39.7063 18.8344 37.9206 20.947C36.1348 23.0597 33.7092 24.7283 30.6438 25.9529C27.5783 27.1775 24.2301 27.7898 20.5991 27.7898C19.5575 27.7898 18.4786 27.7325 17.3625 27.6179C14.4161 30.1244 10.9935 31.8575 7.09466 32.8171C6.36549 33.0177 5.51728 33.1752 4.55001 33.2898H4.43841C4.21519 33.2898 4.0143 33.2146 3.83573 33.0642C3.65716 32.9138 3.53811 32.7169 3.47859 32.4734V32.4519C3.43394 32.3946 3.43022 32.3087 3.46742 32.1941C3.50463 32.0795 3.51951 32.0079 3.51207 31.9792C3.50463 31.9506 3.53811 31.8826 3.61251 31.7751L3.74644 31.5818L3.90269 31.3992L4.08126 31.2058C4.18543 31.0912 4.41609 30.8442 4.77323 30.4646C5.13037 30.085 5.38707 29.8129 5.54332 29.6482C5.69957 29.4835 5.93022 29.2006 6.23528 28.7996C6.54034 28.3985 6.78216 28.0333 6.96073 27.7039C7.1393 27.3744 7.34019 26.9519 7.56341 26.4363C7.78662 25.9207 7.98007 25.3764 8.14376 24.8035C5.80745 23.5287 3.96594 21.9532 2.61921 20.0769C1.27248 18.2006 0.599121 16.1882 0.599121 14.0398C0.599121 11.5476 1.49198 9.2452 3.27769 7.13257C5.06341 5.01994 7.489 3.35132 10.5545 2.12671C13.62 0.9021 16.9682 0.289795 20.5991 0.289795C24.2301 0.289795 27.5783 0.9021 30.6438 2.12671C33.7092 3.35132 36.1348 5.01994 37.9206 7.13257C39.7063 9.2452 40.5991 11.5476 40.5991 14.0398Z" fill="#4B4B4B"/>
</g>
<defs>
<clipPath id="clip0_850_118">
<rect width="40" height="33" fill="white" transform="translate(0.599121 0.289795)"/>
</clipPath>
</defs>
</svg>
