<svg width="48" height="48" viewBox="0 0 48 48" fill="none" xmlns="http://www.w3.org/2000/svg">
<g clip-path="url(#clip0_549_414)">
<path d="M46.5835 24.056C46.5834 24.258 46.5239 24.4556 46.4124 24.6241C46.3009 24.7927 46.1423 24.9247 45.9564 25.0039L16.2545 37.7329C15.9929 37.845 15.7054 37.8826 15.4237 37.8418C15.142 37.801 14.8771 37.6833 14.658 37.5016C14.4389 37.32 14.2742 37.0814 14.182 36.8121C14.0898 36.5428 14.0737 36.2534 14.1354 35.9755L16.7853 24.056L14.1354 12.1364C14.0732 11.8583 14.089 11.5684 14.1811 11.2987C14.2732 11.029 14.4381 10.79 14.6574 10.608C14.8768 10.4261 15.1421 10.3083 15.4242 10.2676C15.7063 10.2269 15.9941 10.265 16.2559 10.3775L45.955 23.1094C46.1409 23.1886 46.2994 23.3207 46.4109 23.4892C46.5224 23.6578 46.5819 23.8553 46.5821 24.0574L46.5835 24.056Z" fill="#4B4B4B"/>
<path d="M18.6668 25.0856L16.3669 35.4388L40.5254 25.0856L18.6668 25.0856ZM40.5254 23.0234L16.3669 12.6702L18.6697 23.0234L40.5269 23.0249L40.5254 23.0234Z" fill="white"/>
</g>
<defs>
<clipPath id="clip0_549_414">
<rect width="33" height="33" fill="white" transform="translate(23.6748 0.721436) rotate(45)"/>
</clipPath>
</defs>
</svg>
