<svg width="32" height="32" viewBox="0 0 32 32" fill="none" xmlns="http://www.w3.org/2000/svg">
<path d="M1.73438 7.42115C1.73438 5.87405 2.34896 4.39032 3.44292 3.29636C4.53688 2.2024 6.02061 1.58781 7.56771 1.58781H25.0677C26.6148 1.58781 28.0985 2.2024 29.1925 3.29636C30.2865 4.39032 30.901 5.87405 30.901 7.42115V24.9211C30.901 26.4682 30.2865 27.952 29.1925 29.0459C28.0985 30.1399 26.6148 30.7545 25.0677 30.7545H7.56771C6.02061 30.7545 4.53688 30.1399 3.44292 29.0459C2.34896 27.952 1.73438 26.4682 1.73438 24.9211V7.42115Z" stroke="#4B4B4B" stroke-width="2" stroke-linecap="round" stroke-linejoin="round"/>
<path d="M11.2137 14.7128C13.2272 14.7128 14.8595 13.0805 14.8595 11.067C14.8595 9.05344 13.2272 7.42114 11.2137 7.42114C9.20017 7.42114 7.56787 9.05344 7.56787 11.067C7.56787 13.0805 9.20017 14.7128 11.2137 14.7128Z" stroke="#4B4B4B" stroke-width="2" stroke-linecap="round" stroke-linejoin="round"/>
<path d="M20.0016 17.0768L7.56787 30.7545H25.2618C26.7575 30.7545 28.1919 30.1603 29.2495 29.1027C30.3071 28.0452 30.9012 26.6108 30.9012 25.1151V24.9212C30.9012 24.2416 30.646 23.9805 30.1866 23.4774L24.3095 17.068C24.0356 16.7692 23.7024 16.5308 23.3312 16.368C22.9601 16.2052 22.559 16.1215 22.1536 16.1223C21.7483 16.1231 21.3476 16.2084 20.9771 16.3728C20.6065 16.5371 20.2743 16.7769 20.0016 17.0768V17.0768Z" stroke="#4B4B4B" stroke-width="2" stroke-linecap="round" stroke-linejoin="round"/>
</svg>
