<svg width="87" height="29" viewBox="0 0 87 29" fill="none" xmlns="http://www.w3.org/2000/svg">
<rect x="0.90332" y="0.671143" width="86" height="28" rx="14" fill="#162B75"/>
<path d="M30.1713 9.52714H33.1473C34.8753 9.52714 35.6433 10.2631 35.6433 11.6231C35.6433 12.9831 34.8753 13.7351 33.1473 13.7191H30.1713V9.52714ZM28.6513 19.6711H30.1713V14.9991H33.6593C35.9473 15.0151 37.1633 13.7511 37.1633 11.6231C37.1633 9.49514 35.9473 8.24714 33.6593 8.24714H28.6513V19.6711ZM39.7943 15.5431C39.7943 13.5431 40.9463 12.4071 42.3703 12.4071C43.7943 12.4071 44.9463 13.5431 44.9463 15.5431C44.9463 17.5431 43.7943 18.6631 42.3703 18.6631C40.9463 18.6631 39.7943 17.5431 39.7943 15.5431ZM38.3543 15.5431C38.3543 17.9591 39.7463 19.8631 42.3703 19.8631C44.9943 19.8631 46.3863 17.9591 46.3863 15.5431C46.3863 13.1111 44.9943 11.2071 42.3703 11.2071C39.7463 11.2071 38.3543 13.1111 38.3543 15.5431ZM47.4618 17.0631C47.5418 19.1111 49.1098 19.8631 50.9658 19.8631C52.6458 19.8631 54.4858 19.2391 54.4858 17.2551C54.4858 15.6711 53.1418 15.2071 51.7818 14.9031C50.5178 14.6151 49.0778 14.4231 49.0778 13.4631C49.0778 12.6311 50.0218 12.4071 50.8378 12.4071C51.7178 12.4071 52.6778 12.7431 52.7578 13.7991H54.1178C53.9898 11.7831 52.5818 11.2071 50.7258 11.2071C49.2698 11.2071 47.6378 11.8951 47.6378 13.5591C47.6378 16.7431 53.0458 15.3031 53.0458 17.4311C53.0458 18.4711 51.8938 18.6631 51.0458 18.6631C49.9418 18.6631 48.8698 18.2791 48.8218 17.0631H47.4618ZM57.8778 8.91914H56.5178V11.3991H55.1098V12.5991H56.5178V17.8631C56.5178 19.3831 57.0778 19.6711 58.4858 19.6711H59.5258V18.4711H58.9018C58.0538 18.4711 57.8778 18.3751 57.8778 17.7351V12.5991H59.5258V11.3991H57.8778V8.91914Z" fill="white"/>
</svg>
