<svg width="35" height="35" viewBox="0 0 35 35" fill="none" xmlns="http://www.w3.org/2000/svg">
<path d="M7.96625 14.9728C7.96625 13.7123 8.21452 12.4641 8.6969 11.2996C9.17928 10.135 9.88631 9.07684 10.7776 8.18552C11.6689 7.29421 12.7271 6.58718 13.8917 6.1048C15.0562 5.62242 16.3044 5.37415 17.5649 5.37415C18.8254 5.37415 20.0736 5.62242 21.2381 6.1048C22.4027 6.58718 23.4608 7.29421 24.3522 8.18552C25.2435 9.07684 25.9505 10.135 26.4329 11.2996C26.9153 12.4641 27.1635 13.7123 27.1635 14.9728V14.9728C27.1635 19.7588 28.1662 22.5394 29.0485 24.0634C29.1422 24.2257 29.1916 24.4098 29.1918 24.5972C29.192 24.7847 29.1429 24.9688 29.0495 25.1313C28.956 25.2938 28.8216 25.4288 28.6595 25.523C28.4975 25.6171 28.3135 25.667 28.1261 25.6677H7.00371C6.81629 25.667 6.63234 25.6171 6.47029 25.523C6.30823 25.4288 6.17375 25.2938 6.08033 25.1313C5.98691 24.9688 5.93782 24.7847 5.93799 24.5972C5.93815 24.4098 5.98757 24.2257 6.08128 24.0634C6.9636 22.5394 7.96625 19.7588 7.96625 14.9728Z" stroke="black" stroke-width="2" stroke-linecap="round" stroke-linejoin="round"/>
<path d="M13.2871 25.6677V26.7372C13.2871 27.8718 13.7378 28.9599 14.5401 29.7622C15.3424 30.5644 16.4305 31.0152 17.5651 31.0152C18.6996 31.0152 19.7878 30.5644 20.59 29.7622C21.3923 28.9599 21.843 27.8718 21.843 26.7372V25.6677" stroke="black" stroke-width="2" stroke-linecap="round" stroke-linejoin="round"/>
<path d="M24.9707 3.2085C27.1482 4.58307 28.9057 6.53016 30.0508 8.83667" stroke="black" stroke-width="2" stroke-linecap="round" stroke-linejoin="round"/>
<path d="M5.0791 8.83667C6.22415 6.53016 7.98162 4.58307 10.1592 3.2085" stroke="black" stroke-width="2" stroke-linecap="round" stroke-linejoin="round"/>
</svg>
