<svg width="26" height="26" viewBox="0 0 26 26" fill="none" xmlns="http://www.w3.org/2000/svg">
<path d="M6.21978 11.2548C6.21978 10.3447 6.39904 9.44353 6.74731 8.60271C7.09559 7.7619 7.60607 6.99791 8.2496 6.35438C8.89314 5.71084 9.65712 5.20037 10.4979 4.85209C11.3388 4.50381 12.2399 4.32455 13.15 4.32455C14.0601 4.32455 14.9613 4.50381 15.8021 4.85209C16.6429 5.20037 17.4069 5.71084 18.0505 6.35438C18.694 6.99791 19.2045 7.7619 19.5527 8.60271C19.901 9.44353 20.0803 10.3447 20.0803 11.2548V11.2548C20.0803 14.7103 20.8042 16.7179 21.4412 17.8183C21.5089 17.9355 21.5446 18.0684 21.5447 18.2037C21.5448 18.339 21.5094 18.472 21.4419 18.5893C21.3745 18.7066 21.2774 18.8041 21.1604 18.8721C21.0434 18.94 20.9105 18.9761 20.7752 18.9765H5.52482C5.38951 18.9761 5.2567 18.94 5.13969 18.8721C5.02268 18.8041 4.92559 18.7066 4.85814 18.5893C4.79069 18.472 4.75525 18.339 4.75537 18.2037C4.75549 18.0684 4.79117 17.9355 4.85883 17.8183C5.49587 16.7179 6.21978 14.7103 6.21978 11.2548Z" stroke="#4B4B4B" stroke-width="2" stroke-linecap="round" stroke-linejoin="round"/>
<path d="M10.0615 18.9765V19.7487C10.0615 20.5679 10.3869 21.3535 10.9662 21.9327C11.5454 22.512 12.331 22.8374 13.1502 22.8374C13.9694 22.8374 14.755 22.512 15.3342 21.9327C15.9135 21.3535 16.2389 20.5679 16.2389 19.7487V18.9765" stroke="#4B4B4B" stroke-width="2" stroke-linecap="round" stroke-linejoin="round"/>
<path d="M18.4976 2.76093C20.0698 3.75337 21.3386 5.15917 22.1654 6.82448" stroke="#4B4B4B" stroke-width="2" stroke-linecap="round" stroke-linejoin="round"/>
<path d="M4.13525 6.82448C4.96198 5.15917 6.23088 3.75337 7.80307 2.76093" stroke="#4B4B4B" stroke-width="2" stroke-linecap="round" stroke-linejoin="round"/>
</svg>
