<svg width="47" height="47" viewBox="0 0 47 47" fill="none" xmlns="http://www.w3.org/2000/svg">
<g clip-path="url(#clip0_131_152)">
<path d="M46.3306 23.574C46.3304 23.7761 46.2709 23.9737 46.1594 24.1422C46.0479 24.3107 45.8894 24.4428 45.7035 24.522L16.0015 37.251C15.7399 37.363 15.4525 37.4007 15.1708 37.3599C14.8891 37.3191 14.6242 37.2014 14.4051 37.0197C14.186 36.838 14.0213 36.5994 13.9291 36.3302C13.8369 36.0609 13.8208 35.7714 13.8825 35.4936L16.5324 23.574L13.8825 11.6545C13.8203 11.3763 13.8361 11.0864 13.9282 10.8167C14.0203 10.547 14.1851 10.308 14.4045 10.1261C14.6239 9.94416 14.8892 9.82635 15.1713 9.78568C15.4534 9.74501 15.7412 9.78305 16.003 9.89562L45.702 22.6275C45.8879 22.7067 46.0465 22.8388 46.158 23.0073C46.2695 23.1758 46.329 23.3734 46.3291 23.5755L46.3306 23.574Z" fill="black"/>
<path d="M18.4139 24.6036L16.114 34.9569L40.2725 24.6037L18.4139 24.6036ZM40.2725 22.5415L16.114 12.1882L18.4168 22.5415L40.2739 22.5429L40.2725 22.5415Z" fill="white"/>
</g>
<defs>
<clipPath id="clip0_131_152">
<rect width="33" height="33" fill="white" transform="translate(23.4219 0.239502) rotate(45)"/>
</clipPath>
</defs>
</svg>
