<svg width="29" height="29" viewBox="0 0 29 29" fill="none" xmlns="http://www.w3.org/2000/svg">
<path d="M1.99756 24.152H26.8752" stroke="black" stroke-width="2" stroke-linecap="round" stroke-linejoin="round"/>
<path d="M16.2128 24.152V4.60529C16.2128 4.36964 16.1192 4.14365 15.9525 3.97703C15.7859 3.81041 15.5599 3.7168 15.3243 3.7168H4.66241C4.42677 3.7168 4.20078 3.81041 4.03416 3.97703C3.86753 4.14365 3.77393 4.36964 3.77393 4.60529V24.152" stroke="black" stroke-width="2" stroke-linecap="round" stroke-linejoin="round"/>
<path d="M25.0983 24.152V11.7132C25.0983 11.4776 25.0047 11.2516 24.838 11.0849C24.6714 10.9183 24.4454 10.8247 24.2098 10.8247H16.2134" stroke="black" stroke-width="2" stroke-linecap="round" stroke-linejoin="round"/>
<path d="M7.32764 8.15918H10.8816" stroke="black" stroke-width="2" stroke-linecap="round" stroke-linejoin="round"/>
<path d="M9.10498 15.2671H12.6589" stroke="black" stroke-width="2" stroke-linecap="round" stroke-linejoin="round"/>
<path d="M7.32764 19.7096H10.8816" stroke="black" stroke-width="2" stroke-linecap="round" stroke-linejoin="round"/>
<path d="M19.7671 19.7096H21.5441" stroke="black" stroke-width="2" stroke-linecap="round" stroke-linejoin="round"/>
<path d="M19.7671 15.2671H21.5441" stroke="black" stroke-width="2" stroke-linecap="round" stroke-linejoin="round"/>
</svg>
