<svg width="39" height="39" viewBox="0 0 39 39" fill="none" xmlns="http://www.w3.org/2000/svg">
<path d="M31.5562 31.7816H7.51386C6.87621 31.7816 6.26469 31.5283 5.8138 31.0774C5.36292 30.6265 5.10962 30.015 5.10962 29.3774V12.5477C5.10962 11.9101 5.36292 11.2985 5.8138 10.8477C6.26469 10.3968 6.87621 10.1435 7.51386 10.1435H12.3223L14.7266 6.53711H24.3435L26.7478 10.1435H31.5562C32.1939 10.1435 32.8054 10.3968 33.2563 10.8477C33.7072 11.2985 33.9605 11.9101 33.9605 12.5477V29.3774C33.9605 30.015 33.7072 30.6265 33.2563 31.0774C32.8054 31.5283 32.1939 31.7816 31.5562 31.7816Z" stroke="#696969" stroke-width="2" stroke-linecap="round" stroke-linejoin="round"/>
<path d="M19.535 25.7712C22.5226 25.7712 24.9446 23.3493 24.9446 20.3617C24.9446 17.3741 22.5226 14.9521 19.535 14.9521C16.5474 14.9521 14.1255 17.3741 14.1255 20.3617C14.1255 23.3493 16.5474 25.7712 19.535 25.7712Z" stroke="#696969" stroke-width="2" stroke-linecap="round" stroke-linejoin="round"/>
</svg>
