<svg width="70" height="66" viewBox="0 0 70 66" fill="none" xmlns="http://www.w3.org/2000/svg">
<path d="M34.9168 1.32007C16.5807 1.32007 1.7168 15.5035 1.7168 33.0001C1.7168 50.4967 16.5807 64.6801 34.9168 64.6801C53.2529 64.6801 68.1168 50.4967 68.1168 33.0001C68.1168 15.5035 53.2529 1.32007 34.9168 1.32007ZM26.7897 46.1308H20.0667V25.486H26.7897V46.1308ZM23.3867 22.9516C21.2633 22.9516 19.8903 21.5161 19.8903 19.7407C19.8903 17.929 21.3048 16.5364 23.4732 16.5364C25.6415 16.5364 26.9695 17.929 27.011 19.7407C27.011 21.5161 25.6415 22.9516 23.3867 22.9516ZM51.3439 46.1308H44.6209V34.6897C44.6209 32.0266 43.6456 30.2182 41.2144 30.2182C39.3573 30.2182 38.2541 31.4425 37.7665 32.6206C37.5866 33.0397 37.5417 33.6337 37.5417 34.2244V46.1275H30.8152V32.0695C30.8152 29.4922 30.7288 27.3373 30.6388 25.4827H36.48L36.7878 28.3504H36.9226C37.808 27.004 39.9763 25.0174 43.6041 25.0174C48.0273 25.0174 51.3439 27.8455 51.3439 33.9241V46.1308Z" fill="#F26522"/>
</svg>
