<svg width="70" height="66" viewBox="0 0 70 66" fill="none" xmlns="http://www.w3.org/2000/svg">
<path d="M40.7935 32.449L33.0261 28.9906C32.3483 28.6903 31.7915 29.0269 31.7915 29.743V36.2572C31.7915 36.9733 32.3483 37.3099 33.0261 37.0096L40.7901 33.5512C41.4713 33.2476 41.4713 32.7526 40.7935 32.449ZM35.2498 1.32007C16.9137 1.32007 2.0498 15.5035 2.0498 33.0001C2.0498 50.4967 16.9137 64.6801 35.2498 64.6801C53.5859 64.6801 68.4498 50.4967 68.4498 33.0001C68.4498 15.5035 53.5859 1.32007 35.2498 1.32007ZM35.2498 45.8701C18.2556 45.8701 17.9581 44.4082 17.9581 33.0001C17.9581 21.592 18.2556 20.1301 35.2498 20.1301C52.2441 20.1301 52.5415 21.592 52.5415 33.0001C52.5415 44.4082 52.2441 45.8701 35.2498 45.8701Z" fill="#F26522"/>
</svg>
