<svg width="70" height="66" viewBox="0 0 70 66" fill="none" xmlns="http://www.w3.org/2000/svg">
<path d="M45.1248 33.0001C45.1248 35.6257 44.0317 38.1438 42.086 40.0004C40.1404 41.857 37.5014 42.9001 34.7498 42.9001C31.9982 42.9001 29.3593 41.857 27.4136 40.0004C25.4679 38.1438 24.3748 35.6257 24.3748 33.0001C24.3748 32.4358 24.4371 31.8847 24.5443 31.3501H20.9165V44.5402C20.9165 45.4576 21.6946 46.2001 22.656 46.2001H46.8471C47.3078 46.1992 47.7494 46.0239 48.0749 45.7127C48.4003 45.4015 48.5831 44.9798 48.5831 44.5402V31.3501H44.9553C45.0626 31.8847 45.1248 32.4358 45.1248 33.0001ZM34.7498 39.6001C35.6583 39.5999 36.5579 39.4289 37.3972 39.0969C38.2365 38.765 38.9991 38.2785 39.6413 37.6653C40.2836 37.0522 40.793 36.3243 41.1405 35.5232C41.488 34.7222 41.6667 33.8637 41.6665 32.9968C41.6662 32.1298 41.4871 31.2714 41.1392 30.4706C40.7913 29.6697 40.2815 28.942 39.6389 28.3292C38.9963 27.7163 38.2335 27.2302 37.394 26.8987C36.5546 26.5671 35.6549 26.3966 34.7463 26.3968C32.9115 26.3972 31.1519 27.0932 29.8548 28.3315C28.5577 29.5699 27.8292 31.2492 27.8297 33.0001C27.8301 34.7509 28.5595 36.4299 29.8573 37.6677C31.155 38.9054 32.9149 39.6005 34.7498 39.6001ZM43.0498 26.0701H47.1963C47.4718 26.0701 47.7361 25.9659 47.9312 25.7803C48.1263 25.5947 48.2364 25.3429 48.2373 25.0801V21.1234C48.2373 20.8599 48.1276 20.6073 47.9324 20.421C47.7372 20.2347 47.4724 20.1301 47.1963 20.1301H43.0498C42.7737 20.1301 42.509 20.2347 42.3137 20.421C42.1185 20.6073 42.0088 20.8599 42.0088 21.1234V25.0801C42.0123 25.6246 42.4792 26.0701 43.0498 26.0701ZM34.7498 1.32007C25.9446 1.32007 17.5001 4.65777 11.2739 10.5989C5.04765 16.5401 1.5498 24.598 1.5498 33.0001C1.5498 41.4021 5.04765 49.4601 11.2739 55.4012C17.5001 61.3424 25.9446 64.6801 34.7498 64.6801C39.1097 64.6801 43.4269 63.8606 47.4549 62.2686C51.4829 60.6765 55.1428 58.343 58.2257 55.4012C61.3087 52.4595 63.7542 48.9671 65.4226 45.1235C67.0911 41.2799 67.9498 37.1603 67.9498 33.0001C67.9498 28.8398 67.0911 24.7203 65.4226 20.8767C63.7542 17.0331 61.3087 13.5407 58.2257 10.5989C55.1428 7.65717 51.4829 5.32363 47.4549 3.73156C43.4269 2.1395 39.1097 1.32007 34.7498 1.32007ZM52.0415 45.8338C52.0415 47.8501 50.3123 49.5001 48.1993 49.5001H21.3003C19.1873 49.5001 17.4581 47.8501 17.4581 45.8338V20.1664C17.4581 18.1501 19.1873 16.5001 21.3003 16.5001H48.1993C50.3123 16.5001 52.0415 18.1501 52.0415 20.1664V45.8338Z" fill="#F26522"/>
</svg>
