<svg width="1920" height="265" viewBox="0 0 1920 265" fill="none" xmlns="http://www.w3.org/2000/svg">
<rect width="1920" height="265" fill="white"/>
<rect width="1920" height="265" fill="#162B75"/>
<path d="M43.2 210.024C42.696 206.376 39.72 204.456 36.144 204.456C30.864 204.456 28.032 208.488 28.032 213.48C28.032 218.472 30.648 222.408 35.952 222.408C40.296 222.408 42.912 219.84 43.368 215.544H41.088C40.896 218.376 39.12 220.488 36.144 220.488C32.04 220.488 30.312 217.224 30.312 213.312C30.312 209.736 32.04 206.376 36.12 206.376C38.52 206.376 40.416 207.6 40.92 210.024H43.2ZM47.3443 215.808C47.3443 212.808 49.0723 211.104 51.2083 211.104C53.3443 211.104 55.0723 212.808 55.0723 215.808C55.0723 218.808 53.3443 220.488 51.2083 220.488C49.0723 220.488 47.3443 218.808 47.3443 215.808ZM45.1843 215.808C45.1843 219.432 47.2723 222.288 51.2083 222.288C55.1443 222.288 57.2323 219.432 57.2323 215.808C57.2323 212.16 55.1443 209.304 51.2083 209.304C47.2723 209.304 45.1843 212.16 45.1843 215.808ZM61.1256 215.808C61.1256 212.808 62.8536 211.104 64.9896 211.104C67.1256 211.104 68.8536 212.808 68.8536 215.808C68.8536 218.808 67.1256 220.488 64.9896 220.488C62.8536 220.488 61.1256 218.808 61.1256 215.808ZM58.9656 215.808C58.9656 219.432 61.0536 222.288 64.9896 222.288C68.9256 222.288 71.0136 219.432 71.0136 215.808C71.0136 212.16 68.9256 209.304 64.9896 209.304C61.0536 209.304 58.9656 212.16 58.9656 215.808ZM73.5388 222H75.5788V217.296L77.4988 215.52L81.7468 222H84.3388L79.0588 214.104L83.9788 209.592H81.2428L75.5788 215.016V204.864H73.5388V222ZM88.0241 204.864H85.9841V207.36H88.0241V204.864ZM85.9841 222H88.0241V209.592H85.9841V222ZM92.6724 214.608C92.7924 212.688 94.1124 211.104 96.2244 211.104C98.2644 211.104 99.6804 212.664 99.8004 214.608H92.6724ZM99.7524 218.064C99.3924 219.696 98.2404 220.488 96.5364 220.488C93.8244 220.488 92.6004 218.568 92.6724 216.408H101.96C102.08 213.408 100.736 209.304 96.3444 209.304C92.9604 209.304 90.5124 212.016 90.5124 215.76C90.6324 219.528 92.5044 222.288 96.4644 222.288C99.2724 222.288 101.216 220.824 101.768 218.064H99.7524ZM113.371 206.784H117.835C120.427 206.784 121.579 207.888 121.579 209.928C121.579 211.968 120.427 213.096 117.835 213.072H113.371V206.784ZM111.091 222H113.371V214.992H118.603C122.035 215.016 123.859 213.12 123.859 209.928C123.859 206.736 122.035 204.864 118.603 204.864H111.091V222ZM127.805 215.808C127.805 212.808 129.533 211.104 131.669 211.104C133.805 211.104 135.533 212.808 135.533 215.808C135.533 218.808 133.805 220.488 131.669 220.488C129.533 220.488 127.805 218.808 127.805 215.808ZM125.645 215.808C125.645 219.432 127.733 222.288 131.669 222.288C135.605 222.288 137.693 219.432 137.693 215.808C137.693 212.16 135.605 209.304 131.669 209.304C127.733 209.304 125.645 212.16 125.645 215.808ZM140.219 222H142.259V204.864H140.219V222ZM147.579 204.864H145.539V207.36H147.579V204.864ZM145.539 222H147.579V209.592H145.539V222ZM161.275 213.576C160.963 210.624 158.755 209.304 155.923 209.304C151.987 209.304 150.067 212.232 150.067 215.952C150.067 219.672 152.083 222.288 155.875 222.288C159.019 222.288 160.891 220.512 161.347 217.464H159.259C158.995 219.36 157.843 220.488 155.851 220.488C153.259 220.488 152.227 218.256 152.227 215.952C152.227 213.456 153.139 211.104 156.091 211.104C157.795 211.104 158.851 212.016 159.163 213.576H161.275ZM173.902 209.592H171.742L168.262 219.744H168.214L164.59 209.592H162.286L167.206 221.928L166.366 224.04C165.982 224.784 165.526 225.168 164.686 225.168C164.278 225.168 163.87 225 163.486 224.88V226.752C163.942 226.92 164.422 226.968 164.902 226.968C166.726 226.968 167.542 226.056 168.502 223.656L173.902 209.592ZM204.965 206.784H208.805C213.005 206.784 214.517 209.256 214.517 213.336C214.517 219.648 210.317 220.08 208.757 220.08H204.965V206.784ZM202.685 222H208.565C214.277 222 216.797 218.76 216.797 213.024C216.797 207.528 213.845 204.864 208.565 204.864H202.685V222ZM221.407 204.864H219.367V207.36H221.407V204.864ZM219.367 222H221.407V209.592H219.367V222ZM223.775 218.088C223.895 221.16 226.247 222.288 229.031 222.288C231.551 222.288 234.311 221.352 234.311 218.376C234.311 216 232.295 215.304 230.255 214.848C228.359 214.416 226.199 214.128 226.199 212.688C226.199 211.44 227.615 211.104 228.839 211.104C230.159 211.104 231.599 211.608 231.719 213.192H233.759C233.567 210.168 231.455 209.304 228.671 209.304C226.487 209.304 224.039 210.336 224.039 212.832C224.039 217.608 232.151 215.448 232.151 218.64C232.151 220.2 230.423 220.488 229.151 220.488C227.495 220.488 225.887 219.912 225.815 218.088H223.775ZM247.103 213.576C246.791 210.624 244.583 209.304 241.751 209.304C237.815 209.304 235.895 212.232 235.895 215.952C235.895 219.672 237.911 222.288 241.703 222.288C244.847 222.288 246.719 220.512 247.175 217.464H245.087C244.823 219.36 243.671 220.488 241.679 220.488C239.087 220.488 238.055 218.256 238.055 215.952C238.055 213.456 238.967 211.104 241.919 211.104C243.623 211.104 244.679 212.016 244.991 213.576H247.103ZM249.578 222H251.618V204.864H249.578V222ZM265.77 220.368C265.554 220.44 265.338 220.488 265.146 220.488C264.498 220.488 264.498 220.056 264.498 219.096V212.712C264.498 209.808 262.074 209.304 259.842 209.304C257.058 209.304 254.706 210.384 254.586 213.456H256.626C256.722 211.632 257.994 211.104 259.722 211.104C260.994 211.104 262.482 211.368 262.482 213.168C262.482 214.728 260.538 214.536 258.306 214.992C256.194 215.376 254.106 216 254.106 218.808C254.106 221.304 255.954 222.288 258.21 222.288C259.938 222.288 261.45 221.712 262.578 220.368C262.578 221.712 263.25 222.288 264.306 222.288C264.906 222.288 265.41 222.168 265.77 221.952V220.368ZM262.458 217.68C262.458 218.832 261.354 220.488 258.666 220.488C257.418 220.488 256.266 220.008 256.266 218.664C256.266 215.616 260.874 216.768 262.458 215.592V217.68ZM269.829 204.864H267.789V207.36H269.829V204.864ZM267.789 222H269.829V209.592H267.789V222ZM272.989 222H275.029V214.272C275.029 213.312 275.941 211.104 278.341 211.104C280.165 211.104 280.669 212.256 280.669 213.864V222H282.709V214.272C282.709 212.352 283.957 211.104 285.949 211.104C287.941 211.104 288.349 212.328 288.349 213.864V222H290.389V212.904C290.389 210.336 288.733 209.304 286.261 209.304C284.653 209.304 283.213 210.072 282.373 211.416C281.869 209.88 280.501 209.304 278.965 209.304C277.213 209.304 275.893 210 274.957 211.416H274.909V209.592H272.989V222ZM294.938 214.608C295.058 212.688 296.378 211.104 298.49 211.104C300.53 211.104 301.946 212.664 302.066 214.608H294.938ZM302.018 218.064C301.658 219.696 300.506 220.488 298.802 220.488C296.09 220.488 294.866 218.568 294.938 216.408H304.226C304.346 213.408 303.002 209.304 298.61 209.304C295.226 209.304 292.778 212.016 292.778 215.76C292.898 219.528 294.77 222.288 298.73 222.288C301.538 222.288 303.482 220.824 304.034 218.064H302.018ZM306.269 222H308.309V216.48C308.309 213.312 309.509 211.464 312.797 211.464V209.304C310.589 209.232 309.221 210.192 308.237 212.208H308.189V209.592H306.269V222ZM343.668 206.784H348.132C350.724 206.784 351.876 207.888 351.876 209.928C351.876 211.968 350.724 213.096 348.132 213.072H343.668V206.784ZM341.388 222H343.668V214.992H348.9C352.332 215.016 354.156 213.12 354.156 209.928C354.156 206.736 352.332 204.864 348.9 204.864H341.388V222ZM356.542 222H358.582V216.48C358.582 213.312 359.782 211.464 363.07 211.464V209.304C360.862 209.232 359.494 210.192 358.51 212.208H358.462V209.592H356.542V222ZM366.766 204.864H364.726V207.36H366.766V204.864ZM364.726 222H366.766V209.592H364.726V222ZM380.055 209.592H377.919L374.535 219.936H374.487L371.007 209.592H368.727L373.335 222H375.519L380.055 209.592ZM392.919 220.368C392.703 220.44 392.487 220.488 392.295 220.488C391.647 220.488 391.647 220.056 391.647 219.096V212.712C391.647 209.808 389.223 209.304 386.991 209.304C384.207 209.304 381.855 210.384 381.735 213.456H383.775C383.871 211.632 385.143 211.104 386.871 211.104C388.143 211.104 389.631 211.368 389.631 213.168C389.631 214.728 387.687 214.536 385.455 214.992C383.343 215.376 381.255 216 381.255 218.808C381.255 221.304 383.103 222.288 385.359 222.288C387.087 222.288 388.599 221.712 389.727 220.368C389.727 221.712 390.399 222.288 391.455 222.288C392.055 222.288 392.559 222.168 392.919 221.952V220.368ZM389.607 217.68C389.607 218.832 388.503 220.488 385.815 220.488C384.567 220.488 383.415 220.008 383.415 218.664C383.415 215.616 388.023 216.768 389.607 215.592V217.68ZM405.353 213.576C405.041 210.624 402.833 209.304 400.001 209.304C396.065 209.304 394.145 212.232 394.145 215.952C394.145 219.672 396.161 222.288 399.953 222.288C403.097 222.288 404.969 220.512 405.425 217.464H403.337C403.073 219.36 401.921 220.488 399.929 220.488C397.337 220.488 396.305 218.256 396.305 215.952C396.305 213.456 397.217 211.104 400.169 211.104C401.873 211.104 402.929 212.016 403.241 213.576H405.353ZM417.98 209.592H415.82L412.34 219.744H412.292L408.668 209.592H406.364L411.284 221.928L410.444 224.04C410.06 224.784 409.604 225.168 408.764 225.168C408.356 225.168 407.948 225 407.564 224.88V226.752C408.02 226.92 408.5 226.968 408.98 226.968C410.804 226.968 411.62 226.056 412.58 223.656L417.98 209.592ZM429.004 206.784H433.468C436.06 206.784 437.212 207.888 437.212 209.928C437.212 211.968 436.06 213.096 433.468 213.072H429.004V206.784ZM426.724 222H429.004V214.992H434.236C437.668 215.016 439.492 213.12 439.492 209.928C439.492 206.736 437.668 204.864 434.236 204.864H426.724V222ZM443.438 215.808C443.438 212.808 445.166 211.104 447.302 211.104C449.438 211.104 451.166 212.808 451.166 215.808C451.166 218.808 449.438 220.488 447.302 220.488C445.166 220.488 443.438 218.808 443.438 215.808ZM441.278 215.808C441.278 219.432 443.366 222.288 447.302 222.288C451.238 222.288 453.326 219.432 453.326 215.808C453.326 212.16 451.238 209.304 447.302 209.304C443.366 209.304 441.278 212.16 441.278 215.808ZM455.851 222H457.891V204.864H455.851V222ZM463.212 204.864H461.172V207.36H463.212V204.864ZM461.172 222H463.212V209.592H461.172V222ZM476.908 213.576C476.596 210.624 474.388 209.304 471.556 209.304C467.62 209.304 465.7 212.232 465.7 215.952C465.7 219.672 467.716 222.288 471.508 222.288C474.652 222.288 476.524 220.512 476.98 217.464H474.892C474.628 219.36 473.476 220.488 471.484 220.488C468.892 220.488 467.86 218.256 467.86 215.952C467.86 213.456 468.772 211.104 471.724 211.104C473.428 211.104 474.484 212.016 474.796 213.576H476.908ZM489.535 209.592H487.375L483.895 219.744H483.847L480.223 209.592H477.919L482.839 221.928L481.999 224.04C481.615 224.784 481.159 225.168 480.319 225.168C479.911 225.168 479.503 225 479.119 224.88V226.752C479.575 226.92 480.055 226.968 480.535 226.968C482.359 226.968 483.175 226.056 484.135 223.656L489.535 209.592ZM522.205 222H524.485V206.784H530.197V204.864H516.493V206.784H522.205V222ZM533.251 214.608C533.371 212.688 534.691 211.104 536.803 211.104C538.843 211.104 540.259 212.664 540.379 214.608H533.251ZM540.331 218.064C539.971 219.696 538.819 220.488 537.115 220.488C534.403 220.488 533.179 218.568 533.251 216.408H542.539C542.659 213.408 541.315 209.304 536.923 209.304C533.539 209.304 531.091 212.016 531.091 215.76C531.211 219.528 533.083 222.288 537.043 222.288C539.851 222.288 541.795 220.824 542.347 218.064H540.331ZM544.581 222H546.621V216.48C546.621 213.312 547.821 211.464 551.109 211.464V209.304C548.901 209.232 547.533 210.192 546.549 212.208H546.501V209.592H544.581V222ZM552.645 222H554.685V214.272C554.685 213.312 555.597 211.104 557.997 211.104C559.821 211.104 560.325 212.256 560.325 213.864V222H562.365V214.272C562.365 212.352 563.613 211.104 565.605 211.104C567.597 211.104 568.005 212.328 568.005 213.864V222H570.045V212.904C570.045 210.336 568.389 209.304 565.917 209.304C564.309 209.304 562.869 210.072 562.029 211.416C561.525 209.88 560.157 209.304 558.621 209.304C556.869 209.304 555.549 210 554.613 211.416H554.565V209.592H552.645V222ZM572.314 218.088C572.434 221.16 574.786 222.288 577.57 222.288C580.09 222.288 582.85 221.352 582.85 218.376C582.85 216 580.834 215.304 578.794 214.848C576.898 214.416 574.738 214.128 574.738 212.688C574.738 211.44 576.154 211.104 577.378 211.104C578.698 211.104 580.138 211.608 580.258 213.192H582.298C582.106 210.168 579.994 209.304 577.21 209.304C575.026 209.304 572.578 210.336 572.578 212.832C572.578 217.608 580.69 215.448 580.69 218.64C580.69 220.2 578.962 220.488 577.69 220.488C576.034 220.488 574.426 219.912 574.354 218.088H572.314ZM596.85 211.464C596.106 210.528 595.194 209.52 595.194 208.488C595.194 207.24 596.202 206.664 597.162 206.664C598.386 206.664 599.13 207.504 599.13 208.488C599.13 209.976 597.834 210.816 596.85 211.464ZM603.066 222H605.73L602.394 218.136C603.114 216.576 603.354 215.976 603.546 213.912H601.602C601.554 214.824 601.362 215.712 601.05 216.576L597.954 212.808C599.61 211.848 601.17 210.432 601.17 208.368C601.17 206.04 599.154 204.864 597.018 204.864C594.522 204.864 593.154 206.544 593.154 208.392C593.154 210.12 594.09 211.08 595.05 212.424C592.866 213.576 591.042 214.944 591.042 217.608C591.042 219 591.762 222.288 596.394 222.288C598.266 222.288 600.21 221.472 601.242 219.864L603.066 222ZM600.114 218.448C599.274 219.696 598.026 220.488 596.466 220.488C594.81 220.488 593.202 219.312 593.202 217.584C593.202 215.568 594.57 214.608 596.178 213.72L600.114 218.448ZM628.247 210.024C627.743 206.376 624.767 204.456 621.191 204.456C615.911 204.456 613.079 208.488 613.079 213.48C613.079 218.472 615.695 222.408 620.999 222.408C625.343 222.408 627.959 219.84 628.415 215.544H626.135C625.943 218.376 624.167 220.488 621.191 220.488C617.087 220.488 615.359 217.224 615.359 213.312C615.359 209.736 617.087 206.376 621.167 206.376C623.567 206.376 625.463 207.6 625.967 210.024H628.247ZM632.391 215.808C632.391 212.808 634.119 211.104 636.255 211.104C638.391 211.104 640.119 212.808 640.119 215.808C640.119 218.808 638.391 220.488 636.255 220.488C634.119 220.488 632.391 218.808 632.391 215.808ZM630.231 215.808C630.231 219.432 632.319 222.288 636.255 222.288C640.191 222.288 642.279 219.432 642.279 215.808C642.279 212.16 640.191 209.304 636.255 209.304C632.319 209.304 630.231 212.16 630.231 215.808ZM644.684 222H646.724V214.992C646.724 212.76 647.924 211.104 650.396 211.104C651.956 211.104 652.916 212.064 652.916 213.6V222H654.956V213.84C654.956 211.176 653.948 209.304 650.684 209.304C648.884 209.304 647.516 210.024 646.652 211.56H646.604V209.592H644.684V222ZM659.508 215.904C659.508 213.48 660.444 211.104 663.228 211.104C666.036 211.104 667.14 213.384 667.14 215.808C667.14 218.112 666.108 220.488 663.348 220.488C660.708 220.488 659.508 218.232 659.508 215.904ZM669.108 204.864H667.068V211.248H667.02C666.132 209.784 664.26 209.304 663.012 209.304C659.22 209.304 657.348 212.256 657.348 215.76C657.348 219.264 659.244 222.288 663.06 222.288C664.788 222.288 666.348 221.688 667.02 220.32H667.068V222H669.108V204.864ZM674.407 204.864H672.367V207.36H674.407V204.864ZM672.367 222H674.407V209.592H672.367V222ZM680.399 205.872H678.359V209.592H676.247V211.392H678.359V219.288C678.359 221.568 679.199 222 681.311 222H682.871V220.2H681.935C680.663 220.2 680.399 220.056 680.399 219.096V211.392H682.871V209.592H680.399V205.872ZM687.298 204.864H685.258V207.36H687.298V204.864ZM685.258 222H687.298V209.592H685.258V222ZM691.946 215.808C691.946 212.808 693.674 211.104 695.81 211.104C697.946 211.104 699.674 212.808 699.674 215.808C699.674 218.808 697.946 220.488 695.81 220.488C693.674 220.488 691.946 218.808 691.946 215.808ZM689.786 215.808C689.786 219.432 691.874 222.288 695.81 222.288C699.746 222.288 701.834 219.432 701.834 215.808C701.834 212.16 699.746 209.304 695.81 209.304C691.874 209.304 689.786 212.16 689.786 215.808ZM704.239 222H706.279V214.992C706.279 212.76 707.479 211.104 709.951 211.104C711.511 211.104 712.471 212.064 712.471 213.6V222H714.511V213.84C714.511 211.176 713.503 209.304 710.239 209.304C708.439 209.304 707.071 210.024 706.207 211.56H706.159V209.592H704.239V222ZM716.783 218.088C716.903 221.16 719.255 222.288 722.039 222.288C724.559 222.288 727.319 221.352 727.319 218.376C727.319 216 725.303 215.304 723.263 214.848C721.367 214.416 719.207 214.128 719.207 212.688C719.207 211.44 720.623 211.104 721.847 211.104C723.167 211.104 724.607 211.608 724.727 213.192H726.767C726.575 210.168 724.463 209.304 721.679 209.304C719.495 209.304 717.047 210.336 717.047 212.832C717.047 217.608 725.159 215.448 725.159 218.64C725.159 220.2 723.431 220.488 722.159 220.488C720.503 220.488 718.895 219.912 718.823 218.088H716.783ZM1332.05 210.024C1331.55 206.376 1328.57 204.456 1325 204.456C1319.72 204.456 1316.88 208.488 1316.88 213.48C1316.88 218.472 1319.5 222.408 1324.8 222.408C1329.15 222.408 1331.76 219.84 1332.22 215.544H1329.94C1329.75 218.376 1327.97 220.488 1325 220.488C1320.89 220.488 1319.16 217.224 1319.16 213.312C1319.16 209.736 1320.89 206.376 1324.97 206.376C1327.37 206.376 1329.27 207.6 1329.77 210.024H1332.05ZM1336.2 215.808C1336.2 212.808 1337.92 211.104 1340.06 211.104C1342.2 211.104 1343.92 212.808 1343.92 215.808C1343.92 218.808 1342.2 220.488 1340.06 220.488C1337.92 220.488 1336.2 218.808 1336.2 215.808ZM1334.04 215.808C1334.04 219.432 1336.12 222.288 1340.06 222.288C1344 222.288 1346.08 219.432 1346.08 215.808C1346.08 212.16 1344 209.304 1340.06 209.304C1336.12 209.304 1334.04 212.16 1334.04 215.808ZM1348.56 226.752H1350.6V220.344H1350.65C1351.54 221.808 1353.41 222.288 1354.66 222.288C1358.45 222.288 1360.32 219.36 1360.32 215.832C1360.32 212.328 1358.43 209.304 1354.61 209.304C1352.88 209.304 1351.32 209.904 1350.65 211.272H1350.6V209.592H1348.56V226.752ZM1358.16 215.688C1358.16 218.112 1357.23 220.488 1354.44 220.488C1351.63 220.488 1350.53 218.208 1350.53 215.784C1350.53 213.48 1351.56 211.104 1354.32 211.104C1356.96 211.104 1358.16 213.36 1358.16 215.688ZM1372.99 209.592H1370.83L1367.35 219.744H1367.3L1363.68 209.592H1361.37L1366.29 221.928L1365.45 224.04C1365.07 224.784 1364.61 225.168 1363.77 225.168C1363.36 225.168 1362.96 225 1362.57 224.88V226.752C1363.03 226.92 1363.51 226.968 1363.99 226.968C1365.81 226.968 1366.63 226.056 1367.59 223.656L1372.99 209.592ZM1374.64 222H1376.68V216.48C1376.68 213.312 1377.88 211.464 1381.17 211.464V209.304C1378.96 209.232 1377.6 210.192 1376.61 212.208H1376.56V209.592H1374.64V222ZM1384.87 204.864H1382.83V207.36H1384.87V204.864ZM1382.83 222H1384.87V209.592H1382.83V222ZM1398.73 209.592H1396.81V211.368H1396.79C1396.04 210 1394.65 209.304 1393.09 209.304C1388.77 209.304 1387.36 212.928 1387.36 215.856C1387.36 219.24 1389.2 222.144 1392.9 222.144C1394.48 222.144 1396.07 221.4 1396.76 219.888H1396.81V220.704C1396.81 223.488 1395.76 225.408 1393.09 225.408C1391.77 225.408 1389.95 224.856 1389.88 223.392H1387.84C1387.96 226.08 1390.64 227.04 1392.97 227.04C1396.91 227.04 1398.73 225 1398.73 220.944V209.592ZM1393.02 220.344C1390.33 220.344 1389.52 217.848 1389.52 215.616C1389.52 213.24 1390.57 211.104 1393.19 211.104C1395.76 211.104 1396.72 213.36 1396.72 215.544C1396.72 217.872 1395.71 220.344 1393.02 220.344ZM1401.81 222H1403.85V214.992C1403.85 212.76 1405.05 211.104 1407.52 211.104C1409.08 211.104 1410.04 212.064 1410.04 213.6V222H1412.08V213.84C1412.08 211.176 1411.07 209.304 1407.81 209.304C1406.35 209.304 1404.55 209.904 1403.9 211.416H1403.85V204.864H1401.81V222ZM1417.98 205.872H1415.94V209.592H1413.83V211.392H1415.94V219.288C1415.94 221.568 1416.78 222 1418.89 222H1420.45V220.2H1419.51C1418.24 220.2 1417.98 220.056 1417.98 219.096V211.392H1420.45V209.592H1417.98V205.872ZM1440.7 215.16C1440.48 216.6 1439.38 217.608 1437.77 217.608C1435.47 217.608 1434.08 215.616 1434.08 213.384C1434.08 211.08 1435.35 209.28 1437.72 209.28C1439.33 209.28 1440.44 210.264 1440.7 211.608H1442.21C1441.83 209.232 1440 207.96 1437.7 207.96C1434.41 207.96 1432.44 210.24 1432.44 213.432C1432.44 216.576 1434.51 218.928 1437.77 218.928C1439.98 218.928 1441.73 217.488 1442.24 215.16H1440.7ZM1430.07 213.384C1430.07 209.112 1433.26 205.776 1437.48 205.776C1441.64 205.776 1444.85 209.112 1444.85 213.384C1444.85 217.776 1441.64 221.088 1437.48 221.088C1433.26 221.088 1430.07 217.776 1430.07 213.384ZM1428.44 213.384C1428.44 218.544 1432.56 222.408 1437.48 222.408C1442.38 222.408 1446.48 218.544 1446.48 213.384C1446.48 208.32 1442.38 204.456 1437.48 204.456C1432.56 204.456 1428.44 208.32 1428.44 213.384ZM1456.83 211.008C1456.76 208.968 1457.77 206.784 1460.14 206.784C1461.94 206.784 1463.43 208.008 1463.43 209.856C1463.43 212.232 1461.97 213.24 1459.09 215.04C1456.69 216.48 1454.62 217.992 1454.31 222H1465.42V220.2H1456.69C1457.07 218.112 1459.35 216.984 1461.46 215.712C1463.57 214.368 1465.59 212.88 1465.59 209.88C1465.59 206.712 1463.21 204.984 1460.26 204.984C1456.66 204.984 1454.6 207.552 1454.79 211.008H1456.83ZM1470.24 213.624C1470.24 211.104 1470.26 206.784 1473.74 206.784C1477.22 206.784 1477.25 211.104 1477.25 213.624C1477.25 216.168 1477.22 220.488 1473.74 220.488C1470.26 220.488 1470.24 216.168 1470.24 213.624ZM1468.08 213.648C1468.08 217.392 1468.41 222.288 1473.74 222.288C1479.07 222.288 1479.41 217.392 1479.41 213.648C1479.41 209.904 1479.07 204.984 1473.74 204.984C1468.41 204.984 1468.08 209.904 1468.08 213.648ZM1483.5 211.008C1483.43 208.968 1484.44 206.784 1486.81 206.784C1488.61 206.784 1490.1 208.008 1490.1 209.856C1490.1 212.232 1488.64 213.24 1485.76 215.04C1483.36 216.48 1481.29 217.992 1480.98 222H1492.09V220.2H1483.36C1483.74 218.112 1486.02 216.984 1488.13 215.712C1490.25 214.368 1492.26 212.88 1492.26 209.88C1492.26 206.712 1489.89 204.984 1486.93 204.984C1483.33 204.984 1481.27 207.552 1481.46 211.008H1483.5ZM1496.84 211.008C1496.77 208.968 1497.77 206.784 1500.15 206.784C1501.95 206.784 1503.44 208.008 1503.44 209.856C1503.44 212.232 1501.97 213.24 1499.09 215.04C1496.69 216.48 1494.63 217.992 1494.32 222H1505.43V220.2H1496.69C1497.08 218.112 1499.36 216.984 1501.47 215.712C1503.58 214.368 1505.6 212.88 1505.6 209.88C1505.6 206.712 1503.22 204.984 1500.27 204.984C1496.67 204.984 1494.61 207.552 1494.8 211.008H1496.84ZM1517.91 206.784H1522.47C1524.46 206.784 1526.12 207.096 1526.12 209.496C1526.12 211.32 1525.06 212.232 1522.47 212.232H1517.91V206.784ZM1515.63 222H1523.91C1527.29 222 1529.12 219.576 1529.12 217.08C1529.12 214.968 1527.97 213.408 1525.85 212.952V212.904C1527.46 212.256 1528.4 210.888 1528.4 209.064C1528.4 207.36 1527.51 206.16 1526.38 205.488C1525.37 204.864 1523.33 204.864 1521.85 204.864H1515.63V222ZM1517.91 214.152H1523.12C1525.04 214.152 1526.84 214.776 1526.84 217.008C1526.84 218.904 1525.61 220.08 1523.62 220.08H1517.91V214.152ZM1542.72 220.368C1542.5 220.44 1542.28 220.488 1542.09 220.488C1541.44 220.488 1541.44 220.056 1541.44 219.096V212.712C1541.44 209.808 1539.02 209.304 1536.79 209.304C1534 209.304 1531.65 210.384 1531.53 213.456H1533.57C1533.67 211.632 1534.94 211.104 1536.67 211.104C1537.94 211.104 1539.43 211.368 1539.43 213.168C1539.43 214.728 1537.48 214.536 1535.25 214.992C1533.14 215.376 1531.05 216 1531.05 218.808C1531.05 221.304 1532.9 222.288 1535.16 222.288C1536.88 222.288 1538.4 221.712 1539.52 220.368C1539.52 221.712 1540.2 222.288 1541.25 222.288C1541.85 222.288 1542.36 222.168 1542.72 221.952V220.368ZM1539.4 217.68C1539.4 218.832 1538.3 220.488 1535.61 220.488C1534.36 220.488 1533.21 220.008 1533.21 218.664C1533.21 215.616 1537.82 216.768 1539.4 215.592V217.68ZM1544.61 222H1546.65V214.992C1546.65 212.76 1547.85 211.104 1550.33 211.104C1551.89 211.104 1552.85 212.064 1552.85 213.6V222H1554.89V213.84C1554.89 211.176 1553.88 209.304 1550.61 209.304C1548.81 209.304 1547.45 210.024 1546.58 211.56H1546.53V209.592H1544.61V222ZM1558.07 222H1560.11V217.296L1562.03 215.52L1566.28 222H1568.87L1563.59 214.104L1568.51 209.592H1565.77L1560.11 215.016V204.864H1558.07V222ZM1578.56 215.808C1578.56 212.808 1580.29 211.104 1582.43 211.104C1584.56 211.104 1586.29 212.808 1586.29 215.808C1586.29 218.808 1584.56 220.488 1582.43 220.488C1580.29 220.488 1578.56 218.808 1578.56 215.808ZM1576.4 215.808C1576.4 219.432 1578.49 222.288 1582.43 222.288C1586.36 222.288 1588.45 219.432 1588.45 215.808C1588.45 212.16 1586.36 209.304 1582.43 209.304C1578.49 209.304 1576.4 212.16 1576.4 215.808ZM1591.7 222H1593.74V211.392H1596.14V209.592H1593.74V207.864C1593.74 206.784 1594.31 206.472 1595.3 206.472C1595.66 206.472 1596.09 206.52 1596.45 206.64V204.864C1596.06 204.744 1595.51 204.672 1595.13 204.672C1592.9 204.672 1591.7 205.728 1591.7 207.744V209.592H1589.61V211.392H1591.7V222ZM1607.25 206.784H1611.81C1613.81 206.784 1615.46 207.096 1615.46 209.496C1615.46 211.32 1614.41 212.232 1611.81 212.232H1607.25V206.784ZM1604.97 222H1613.25C1616.64 222 1618.46 219.576 1618.46 217.08C1618.46 214.968 1617.31 213.408 1615.2 212.952V212.904C1616.81 212.256 1617.74 210.888 1617.74 209.064C1617.74 207.36 1616.85 206.16 1615.73 205.488C1614.72 204.864 1612.68 204.864 1611.19 204.864H1604.97V222ZM1607.25 214.152H1612.46C1614.38 214.152 1616.18 214.776 1616.18 217.008C1616.18 218.904 1614.96 220.08 1612.97 220.08H1607.25V214.152ZM1632.06 220.368C1631.84 220.44 1631.63 220.488 1631.44 220.488C1630.79 220.488 1630.79 220.056 1630.79 219.096V212.712C1630.79 209.808 1628.36 209.304 1626.13 209.304C1623.35 209.304 1621 210.384 1620.88 213.456H1622.92C1623.01 211.632 1624.28 211.104 1626.01 211.104C1627.28 211.104 1628.77 211.368 1628.77 213.168C1628.77 214.728 1626.83 214.536 1624.6 214.992C1622.48 215.376 1620.4 216 1620.4 218.808C1620.4 221.304 1622.24 222.288 1624.5 222.288C1626.23 222.288 1627.74 221.712 1628.87 220.368C1628.87 221.712 1629.54 222.288 1630.6 222.288C1631.2 222.288 1631.7 222.168 1632.06 221.952V220.368ZM1628.75 217.68C1628.75 218.832 1627.64 220.488 1624.96 220.488C1623.71 220.488 1622.56 220.008 1622.56 218.664C1622.56 215.616 1627.16 216.768 1628.75 215.592V217.68ZM1633.89 222H1635.93V216.48C1635.93 213.312 1637.13 211.464 1640.41 211.464V209.304C1638.21 209.232 1636.84 210.192 1635.85 212.208H1635.81V209.592H1633.89V222ZM1643.44 215.808C1643.44 212.808 1645.17 211.104 1647.3 211.104C1649.44 211.104 1651.17 212.808 1651.17 215.808C1651.17 218.808 1649.44 220.488 1647.3 220.488C1645.17 220.488 1643.44 218.808 1643.44 215.808ZM1641.28 215.808C1641.28 219.432 1643.37 222.288 1647.3 222.288C1651.24 222.288 1653.33 219.432 1653.33 215.808C1653.33 212.16 1651.24 209.304 1647.3 209.304C1643.37 209.304 1641.28 212.16 1641.28 215.808ZM1657.22 215.904C1657.22 213.48 1658.16 211.104 1660.94 211.104C1663.75 211.104 1664.85 213.384 1664.85 215.808C1664.85 218.112 1663.82 220.488 1661.06 220.488C1658.42 220.488 1657.22 218.232 1657.22 215.904ZM1666.82 204.864H1664.78V211.248H1664.73C1663.84 209.784 1661.97 209.304 1660.72 209.304C1656.93 209.304 1655.06 212.256 1655.06 215.76C1655.06 219.264 1656.96 222.288 1660.77 222.288C1662.5 222.288 1664.06 221.688 1664.73 220.32H1664.78V222H1666.82V204.864ZM1680.95 220.368C1680.73 220.44 1680.52 220.488 1680.33 220.488C1679.68 220.488 1679.68 220.056 1679.68 219.096V212.712C1679.68 209.808 1677.25 209.304 1675.02 209.304C1672.24 209.304 1669.89 210.384 1669.77 213.456H1671.81C1671.9 211.632 1673.17 211.104 1674.9 211.104C1676.17 211.104 1677.66 211.368 1677.66 213.168C1677.66 214.728 1675.72 214.536 1673.49 214.992C1671.37 215.376 1669.29 216 1669.29 218.808C1669.29 221.304 1671.13 222.288 1673.39 222.288C1675.12 222.288 1676.63 221.712 1677.76 220.368C1677.76 221.712 1678.43 222.288 1679.49 222.288C1680.09 222.288 1680.59 222.168 1680.95 221.952V220.368ZM1677.64 217.68C1677.64 218.832 1676.53 220.488 1673.85 220.488C1672.6 220.488 1671.45 220.008 1671.45 218.664C1671.45 215.616 1676.05 216.768 1677.64 215.592V217.68ZM1683.3 222H1685.97V219.336H1683.3V222ZM1702.4 206.928H1702.45L1705.3 214.92H1699.5L1702.4 206.928ZM1694.5 222H1696.86L1698.78 216.84H1706.02L1707.9 222H1710.42L1703.72 204.864H1701.2L1694.5 222ZM1711.89 222H1713.93V204.864H1711.89V222ZM1717.21 222H1719.25V204.864H1717.21V222ZM1729.02 222H1731.06V216.48C1731.06 213.312 1732.26 211.464 1735.55 211.464V209.304C1733.34 209.232 1731.97 210.192 1730.99 212.208H1730.94V209.592H1729.02V222ZM1739.24 204.864H1737.2V207.36H1739.24V204.864ZM1737.2 222H1739.24V209.592H1737.2V222ZM1753.11 209.592H1751.19V211.368H1751.16C1750.42 210 1749.03 209.304 1747.47 209.304C1743.15 209.304 1741.73 212.928 1741.73 215.856C1741.73 219.24 1743.58 222.144 1747.28 222.144C1748.86 222.144 1750.44 221.4 1751.14 219.888H1751.19V220.704C1751.19 223.488 1750.13 225.408 1747.47 225.408C1746.15 225.408 1744.32 224.856 1744.25 223.392H1742.21C1742.33 226.08 1745.02 227.04 1747.35 227.04C1751.28 227.04 1753.11 225 1753.11 220.944V209.592ZM1747.4 220.344C1744.71 220.344 1743.89 217.848 1743.89 215.616C1743.89 213.24 1744.95 211.104 1747.56 211.104C1750.13 211.104 1751.09 213.36 1751.09 215.544C1751.09 217.872 1750.08 220.344 1747.4 220.344ZM1756.18 222H1758.22V214.992C1758.22 212.76 1759.42 211.104 1761.9 211.104C1763.46 211.104 1764.42 212.064 1764.42 213.6V222H1766.46V213.84C1766.46 211.176 1765.45 209.304 1762.18 209.304C1760.72 209.304 1758.92 209.904 1758.27 211.416H1758.22V204.864H1756.18V222ZM1772.35 205.872H1770.31V209.592H1768.2V211.392H1770.31V219.288C1770.31 221.568 1771.15 222 1773.26 222H1774.82V220.2H1773.89C1772.62 220.2 1772.35 220.056 1772.35 219.096V211.392H1774.82V209.592H1772.35V205.872ZM1776.3 218.088C1776.42 221.16 1778.77 222.288 1781.55 222.288C1784.07 222.288 1786.83 221.352 1786.83 218.376C1786.83 216 1784.82 215.304 1782.78 214.848C1780.88 214.416 1778.72 214.128 1778.72 212.688C1778.72 211.44 1780.14 211.104 1781.36 211.104C1782.68 211.104 1784.12 211.608 1784.24 213.192H1786.28C1786.09 210.168 1783.98 209.304 1781.19 209.304C1779.01 209.304 1776.56 210.336 1776.56 212.832C1776.56 217.608 1784.67 215.448 1784.67 218.64C1784.67 220.2 1782.95 220.488 1781.67 220.488C1780.02 220.488 1778.41 219.912 1778.34 218.088H1776.3ZM1795.7 222H1797.74V216.48C1797.74 213.312 1798.94 211.464 1802.23 211.464V209.304C1800.02 209.232 1798.65 210.192 1797.67 212.208H1797.62V209.592H1795.7V222ZM1805.25 214.608C1805.37 212.688 1806.69 211.104 1808.8 211.104C1810.84 211.104 1812.26 212.664 1812.38 214.608H1805.25ZM1812.33 218.064C1811.97 219.696 1810.82 220.488 1809.11 220.488C1806.4 220.488 1805.18 218.568 1805.25 216.408H1814.54C1814.66 213.408 1813.31 209.304 1808.92 209.304C1805.54 209.304 1803.09 212.016 1803.09 215.76C1803.21 219.528 1805.08 222.288 1809.04 222.288C1811.85 222.288 1813.79 220.824 1814.35 218.064H1812.33ZM1815.86 218.088C1815.98 221.16 1818.33 222.288 1821.12 222.288C1823.64 222.288 1826.4 221.352 1826.4 218.376C1826.4 216 1824.38 215.304 1822.34 214.848C1820.45 214.416 1818.29 214.128 1818.29 212.688C1818.29 211.44 1819.7 211.104 1820.93 211.104C1822.25 211.104 1823.69 211.608 1823.81 213.192H1825.85C1825.65 210.168 1823.54 209.304 1820.76 209.304C1818.57 209.304 1816.13 210.336 1816.13 212.832C1816.13 217.608 1824.24 215.448 1824.24 218.64C1824.24 220.2 1822.51 220.488 1821.24 220.488C1819.58 220.488 1817.97 219.912 1817.9 218.088H1815.86ZM1830.14 214.608C1830.26 212.688 1831.58 211.104 1833.69 211.104C1835.73 211.104 1837.15 212.664 1837.27 214.608H1830.14ZM1837.22 218.064C1836.86 219.696 1835.71 220.488 1834.01 220.488C1831.29 220.488 1830.07 218.568 1830.14 216.408H1839.43C1839.55 213.408 1838.21 209.304 1833.81 209.304C1830.43 209.304 1827.98 212.016 1827.98 215.76C1828.1 219.528 1829.97 222.288 1833.93 222.288C1836.74 222.288 1838.69 220.824 1839.24 218.064H1837.22ZM1841.47 222H1843.51V216.48C1843.51 213.312 1844.71 211.464 1848 211.464V209.304C1845.79 209.232 1844.42 210.192 1843.44 212.208H1843.39V209.592H1841.47V222ZM1859.66 209.592H1857.53L1854.14 219.936H1854.1L1850.62 209.592H1848.34L1852.94 222H1855.13L1859.66 209.592ZM1863.02 214.608C1863.14 212.688 1864.46 211.104 1866.58 211.104C1868.62 211.104 1870.03 212.664 1870.15 214.608H1863.02ZM1870.1 218.064C1869.74 219.696 1868.59 220.488 1866.89 220.488C1864.18 220.488 1862.95 218.568 1863.02 216.408H1872.31C1872.43 213.408 1871.09 209.304 1866.7 209.304C1863.31 209.304 1860.86 212.016 1860.86 215.76C1860.98 219.528 1862.86 222.288 1866.82 222.288C1869.62 222.288 1871.57 220.824 1872.12 218.064H1870.1ZM1875.91 215.904C1875.91 213.48 1876.85 211.104 1879.63 211.104C1882.44 211.104 1883.55 213.384 1883.55 215.808C1883.55 218.112 1882.51 220.488 1879.75 220.488C1877.11 220.488 1875.91 218.232 1875.91 215.904ZM1885.51 204.864H1883.47V211.248H1883.43C1882.54 209.784 1880.67 209.304 1879.42 209.304C1875.63 209.304 1873.75 212.256 1873.75 215.76C1873.75 219.264 1875.65 222.288 1879.47 222.288C1881.19 222.288 1882.75 221.688 1883.43 220.32H1883.47V222H1885.51V204.864Z" fill="white"/>
<path d="M769.583 28.3201C751.247 28.3201 736.383 42.5035 736.383 60.0001C736.383 77.4967 751.247 91.6801 769.583 91.6801C787.919 91.6801 802.783 77.4967 802.783 60.0001C802.783 42.5035 787.919 28.3201 769.583 28.3201ZM777.448 50.2123H772.457C771.866 50.2123 771.209 50.9548 771.209 51.9415V55.3801H777.451L776.507 60.2839H771.209V75.0052H765.319V60.2839H759.976V55.3801H765.319V52.4959C765.319 48.3577 768.328 44.995 772.457 44.995H777.448V50.2123Z" fill="#F26522"/>
<path d="M856.125 60.0001C856.125 62.6257 855.032 65.1438 853.086 67.0004C851.14 68.857 848.501 69.9001 845.75 69.9001C842.998 69.9001 840.359 68.857 838.414 67.0004C836.468 65.1438 835.375 62.6257 835.375 60.0001C835.375 59.4358 835.437 58.8847 835.544 58.3501H831.916V71.5402C831.916 72.4576 832.695 73.2001 833.656 73.2001H857.847C858.308 73.1992 858.749 73.0239 859.075 72.7127C859.4 72.4015 859.583 71.9798 859.583 71.5402V58.3501H855.955C856.063 58.8847 856.125 59.4358 856.125 60.0001ZM845.75 66.6001C846.658 66.5999 847.558 66.4289 848.397 66.0969C849.237 65.765 849.999 65.2785 850.641 64.6653C851.284 64.0522 851.793 63.3243 852.141 62.5232C852.488 61.7222 852.667 60.8637 852.666 59.9968C852.666 59.1298 852.487 58.2714 852.139 57.4706C851.791 56.6697 851.281 55.942 850.639 55.3292C849.996 54.7163 849.233 54.2302 848.394 53.8987C847.555 53.5671 846.655 53.3966 845.746 53.3968C843.911 53.3972 842.152 54.0932 840.855 55.3315C839.558 56.5699 838.829 58.2492 838.83 60.0001C838.83 61.7509 839.559 63.4299 840.857 64.6677C842.155 65.9054 843.915 66.6005 845.75 66.6001ZM854.05 53.0701H858.196C858.472 53.0701 858.736 52.9659 858.931 52.7803C859.126 52.5947 859.236 52.3429 859.237 52.0801V48.1234C859.237 47.8599 859.128 47.6073 858.932 47.421C858.737 47.2347 858.472 47.1301 858.196 47.1301H854.05C853.774 47.1301 853.509 47.2347 853.314 47.421C853.119 47.6073 853.009 47.8599 853.009 48.1234V52.0801C853.012 52.6246 853.479 53.0701 854.05 53.0701ZM845.75 28.3201C836.945 28.3201 828.5 31.6578 822.274 37.5989C816.048 43.5401 812.55 51.598 812.55 60.0001C812.55 68.4021 816.048 76.4601 822.274 82.4012C828.5 88.3424 836.945 91.6801 845.75 91.6801C850.11 91.6801 854.427 90.8606 858.455 89.2686C862.483 87.6765 866.143 85.343 869.226 82.4012C872.309 79.4595 874.754 75.9671 876.423 72.1235C878.091 68.2799 878.95 64.1603 878.95 60.0001C878.95 55.8398 878.091 51.7203 876.423 47.8767C874.754 44.0331 872.309 40.5407 869.226 37.5989C866.143 34.6572 862.483 32.3236 858.455 30.7316C854.427 29.1395 850.11 28.3201 845.75 28.3201ZM863.041 72.8338C863.041 74.8501 861.312 76.5001 859.199 76.5001H832.3C830.187 76.5001 828.458 74.8501 828.458 72.8338V47.1664C828.458 45.1501 830.187 43.5001 832.3 43.5001H859.199C861.312 43.5001 863.041 45.1501 863.041 47.1664V72.8338Z" fill="#F26522"/>
<path d="M921.917 28.3201C903.581 28.3201 888.717 42.5035 888.717 60.0001C888.717 77.4967 903.581 91.6801 921.917 91.6801C940.253 91.6801 955.117 77.4967 955.117 60.0001C955.117 42.5035 940.253 28.3201 921.917 28.3201ZM913.79 73.1308H907.067V52.486H913.79V73.1308ZM910.387 49.9516C908.263 49.9516 906.89 48.5161 906.89 46.7407C906.89 44.929 908.305 43.5364 910.473 43.5364C912.642 43.5364 913.97 44.929 914.011 46.7407C914.011 48.5161 912.642 49.9516 910.387 49.9516ZM938.344 73.1308H931.621V61.6897C931.621 59.0266 930.646 57.2182 928.214 57.2182C926.357 57.2182 925.254 58.4425 924.766 59.6206C924.587 60.0397 924.542 60.6337 924.542 61.2244V73.1275H917.815V59.0695C917.815 56.4922 917.729 54.3373 917.639 52.4827H923.48L923.788 55.3504H923.923C924.808 54.004 926.976 52.0174 930.604 52.0174C935.027 52.0174 938.344 54.8455 938.344 60.9241V73.1308Z" fill="#F26522"/>
<path d="M998.083 27C978.985 27 963.5 41.7763 963.5 60C963.5 78.2237 978.985 93 998.083 93C1017.18 93 1032.67 78.2237 1032.67 60C1032.67 41.7763 1017.18 27 998.083 27ZM1014.7 51.8752C1014.73 52.2214 1014.73 52.5824 1014.73 52.9359C1014.73 63.7493 1006.1 76.2054 990.325 76.2054C985.462 76.2054 980.954 74.8574 977.156 72.5371C977.851 72.6107 978.514 72.6402 979.225 72.6402C983.239 72.6402 986.929 71.3438 989.87 69.1487C986.103 69.075 982.938 66.7179 981.857 63.4768C983.177 63.6609 984.366 63.6609 985.724 63.3295C983.785 62.9534 982.041 61.9482 980.79 60.4846C979.539 59.0209 978.858 57.1892 978.862 55.3004V55.1973C979.997 55.8087 981.332 56.1844 982.729 56.2359C981.555 55.489 980.591 54.477 979.925 53.2897C979.258 52.1025 978.909 50.7766 978.908 49.4297C978.908 47.9049 979.325 46.5127 980.074 45.3047C982.227 47.8337 984.913 49.9022 987.959 51.3756C991.005 52.8489 994.341 53.6943 997.751 53.8567C996.539 48.2953 1000.89 43.7946 1006.13 43.7946C1008.6 43.7946 1010.82 44.7817 1012.39 46.3728C1014.33 46.0266 1016.18 45.3342 1017.83 44.406C1017.19 46.2991 1015.85 47.8975 1014.06 48.9067C1015.79 48.7299 1017.46 48.2732 1019 47.6324C1017.84 49.2676 1016.38 50.7188 1014.7 51.8752Z" fill="#F26522"/>
<path d="M1079.79 59.449L1072.03 55.9906C1071.35 55.6903 1070.79 56.0269 1070.79 56.743V63.2572C1070.79 63.9733 1071.35 64.3099 1072.03 64.0096L1079.79 60.5512C1080.47 60.2476 1080.47 59.7526 1079.79 59.449ZM1074.25 28.3201C1055.91 28.3201 1041.05 42.5035 1041.05 60.0001C1041.05 77.4967 1055.91 91.6801 1074.25 91.6801C1092.59 91.6801 1107.45 77.4967 1107.45 60.0001C1107.45 42.5035 1092.59 28.3201 1074.25 28.3201ZM1074.25 72.8701C1057.26 72.8701 1056.96 71.4082 1056.96 60.0001C1056.96 48.592 1057.26 47.1301 1074.25 47.1301C1091.24 47.1301 1091.54 48.592 1091.54 60.0001C1091.54 71.4082 1091.24 72.8701 1074.25 72.8701Z" fill="#F26522"/>
<path fill-rule="evenodd" clip-rule="evenodd" d="M1150.42 93C1169.52 93 1185 78.2254 1185 60C1185 41.7746 1169.52 27 1150.42 27C1131.32 27 1115.83 41.7746 1115.83 60C1115.83 78.2254 1131.32 93 1150.42 93ZM1145.99 64.6933C1148.83 64.6933 1150.28 66.963 1151.52 69.2125C1150.73 69.4288 1149.86 69.5223 1148.91 69.5223C1142.92 69.5223 1140.33 65.6228 1140.33 57.9888C1140.33 50.3108 1142.92 46.3728 1148.91 46.3728C1154.99 46.3728 1157.59 50.3108 1157.59 57.9888C1157.59 61.0615 1157.16 63.542 1156.24 65.3772C1154.7 63.2285 1152.75 61.5382 1148.96 61.5382C1146.52 61.5382 1144.62 62.2752 1143.45 63.2083L1144.41 64.9812C1144.91 64.7777 1145.45 64.6933 1145.99 64.6933ZM1148.91 72.3933C1150.29 72.3911 1151.67 72.2223 1153 71.891L1152.99 71.924C1154.56 74.399 1156.63 76.5 1160.59 76.5C1167.1 76.5 1167.83 70.956 1167.69 69.6177H1165.37C1165.24 70.6242 1164.52 71.8837 1162.73 71.8837C1161.08 71.8837 1159.92 70.8295 1158.78 69.251C1162.32 66.721 1164.76 62.8068 1164.76 57.9888C1164.76 49.3282 1157.02 43.5 1148.91 43.5C1140.93 43.5 1133.13 49.3722 1133.12 57.987C1133.12 66.523 1140.93 72.3933 1148.91 72.3933Z" fill="#F26522"/>
<path d="M40.944 34.88C40.824 31.112 38.136 29.456 34.632 29.456C31.488 29.456 28.416 31.016 28.416 34.472C28.416 40.76 39.384 37.664 39.384 42.368C39.384 44.84 37.104 45.488 35.04 45.488C32.448 45.488 30.048 44.24 30.048 41.36H27.888C27.888 45.512 31.128 47.408 34.968 47.408C38.088 47.408 41.664 45.944 41.664 42.296C41.664 35.552 30.696 38.528 30.696 34.304C30.696 32.072 32.592 31.376 34.536 31.376C36.912 31.376 38.52 32.408 38.784 34.88H40.944ZM54.3705 34.592H52.3305V41.6C52.3305 43.832 51.1305 45.488 48.6585 45.488C47.0985 45.488 46.1385 44.528 46.1385 42.992V34.592H44.0985V42.752C44.0985 45.416 45.1065 47.288 48.3705 47.288C50.1705 47.288 51.5385 46.568 52.4025 45.032H52.4505V47H54.3705V34.592ZM57.5064 47H59.5464V45.344H59.5944C60.4824 46.808 62.3544 47.288 63.6024 47.288C67.3944 47.288 69.2664 44.36 69.2664 40.832C69.2664 37.328 67.3704 34.304 63.5544 34.304C61.8264 34.304 60.2664 34.904 59.5944 36.272H59.5464V29.864H57.5064V47ZM67.1064 40.688C67.1064 43.112 66.1704 45.488 63.3864 45.488C60.5784 45.488 59.4744 43.208 59.4744 40.784C59.4744 38.48 60.5064 36.104 63.2664 36.104C65.9064 36.104 67.1064 38.36 67.1064 40.688ZM70.869 43.088C70.989 46.16 73.341 47.288 76.125 47.288C78.645 47.288 81.405 46.352 81.405 43.376C81.405 41 79.389 40.304 77.349 39.848C75.453 39.416 73.293 39.128 73.293 37.688C73.293 36.44 74.709 36.104 75.933 36.104C77.253 36.104 78.693 36.608 78.813 38.192H80.853C80.661 35.168 78.549 34.304 75.765 34.304C73.581 34.304 71.133 35.336 71.133 37.832C71.133 42.608 79.245 40.448 79.245 43.64C79.245 45.2 77.517 45.488 76.245 45.488C74.589 45.488 72.981 44.912 72.909 43.088H70.869ZM94.197 38.576C93.885 35.624 91.677 34.304 88.845 34.304C84.909 34.304 82.989 37.232 82.989 40.952C82.989 44.672 85.005 47.288 88.797 47.288C91.941 47.288 93.813 45.512 94.269 42.464H92.181C91.917 44.36 90.765 45.488 88.773 45.488C86.181 45.488 85.149 43.256 85.149 40.952C85.149 38.456 86.061 36.104 89.013 36.104C90.717 36.104 91.773 37.016 92.085 38.576H94.197ZM96.4796 47H98.5196V41.48C98.5196 38.312 99.7196 36.464 103.008 36.464V34.304C100.8 34.232 99.4316 35.192 98.4476 37.208H98.3996V34.592H96.4796V47ZM106.704 29.864H104.664V32.36H106.704V29.864ZM104.664 47H106.704V34.592H104.664V47ZM109.936 47H111.976V45.344H112.024C112.912 46.808 114.784 47.288 116.032 47.288C119.824 47.288 121.696 44.36 121.696 40.832C121.696 37.328 119.8 34.304 115.984 34.304C114.256 34.304 112.696 34.904 112.024 36.272H111.976V29.864H109.936V47ZM119.536 40.688C119.536 43.112 118.6 45.488 115.816 45.488C113.008 45.488 111.904 43.208 111.904 40.784C111.904 38.48 112.936 36.104 115.696 36.104C118.336 36.104 119.536 38.36 119.536 40.688ZM125.579 39.608C125.699 37.688 127.019 36.104 129.131 36.104C131.171 36.104 132.587 37.664 132.707 39.608H125.579ZM132.659 43.064C132.299 44.696 131.147 45.488 129.443 45.488C126.731 45.488 125.507 43.568 125.579 41.408H134.867C134.987 38.408 133.643 34.304 129.251 34.304C125.867 34.304 123.419 37.016 123.419 40.76C123.539 44.528 125.411 47.288 129.371 47.288C132.179 47.288 134.123 45.824 134.675 43.064H132.659ZM146.493 30.872H144.453V34.592H142.341V36.392H144.453V44.288C144.453 46.568 145.293 47 147.405 47H148.965V45.2H148.029C146.757 45.2 146.493 45.056 146.493 44.096V36.392H148.965V34.592H146.493V30.872ZM152.719 40.808C152.719 37.808 154.447 36.104 156.583 36.104C158.719 36.104 160.447 37.808 160.447 40.808C160.447 43.808 158.719 45.488 156.583 45.488C154.447 45.488 152.719 43.808 152.719 40.808ZM150.559 40.808C150.559 44.432 152.647 47.288 156.583 47.288C160.519 47.288 162.607 44.432 162.607 40.808C162.607 37.16 160.519 34.304 156.583 34.304C152.647 34.304 150.559 37.16 150.559 40.808ZM173.18 40.808C173.18 37.808 174.908 36.104 177.044 36.104C179.18 36.104 180.908 37.808 180.908 40.808C180.908 43.808 179.18 45.488 177.044 45.488C174.908 45.488 173.18 43.808 173.18 40.808ZM171.02 40.808C171.02 44.432 173.108 47.288 177.044 47.288C180.98 47.288 183.068 44.432 183.068 40.808C183.068 37.16 180.98 34.304 177.044 34.304C173.108 34.304 171.02 37.16 171.02 40.808ZM195.746 34.592H193.706V41.6C193.706 43.832 192.506 45.488 190.034 45.488C188.474 45.488 187.514 44.528 187.514 42.992V34.592H185.474V42.752C185.474 45.416 186.482 47.288 189.746 47.288C191.546 47.288 192.914 46.568 193.778 45.032H193.826V47H195.746V34.592ZM198.737 47H200.777V41.48C200.777 38.312 201.977 36.464 205.265 36.464V34.304C203.057 34.232 201.689 35.192 200.705 37.208H200.657V34.592H198.737V47ZM213.481 47H215.521V39.992C215.521 37.76 216.721 36.104 219.193 36.104C220.753 36.104 221.713 37.064 221.713 38.6V47H223.753V38.84C223.753 36.176 222.745 34.304 219.481 34.304C217.681 34.304 216.313 35.024 215.449 36.56H215.401V34.592H213.481V47ZM228.305 39.608C228.425 37.688 229.745 36.104 231.857 36.104C233.897 36.104 235.313 37.664 235.433 39.608H228.305ZM235.385 43.064C235.025 44.696 233.873 45.488 232.169 45.488C229.457 45.488 228.233 43.568 228.305 41.408H237.593C237.713 38.408 236.369 34.304 231.977 34.304C228.593 34.304 226.145 37.016 226.145 40.76C226.265 44.528 228.137 47.288 232.097 47.288C234.905 47.288 236.849 45.824 237.401 43.064H235.385ZM255.956 34.592H253.844L251.06 44.744H251.012L248.42 34.592H246.188L243.692 44.744H243.644L240.836 34.592H238.58L242.564 47H244.772L247.268 37.136H247.316L249.836 47H251.996L255.956 34.592ZM257.103 43.088C257.223 46.16 259.575 47.288 262.359 47.288C264.879 47.288 267.639 46.352 267.639 43.376C267.639 41 265.623 40.304 263.583 39.848C261.687 39.416 259.527 39.128 259.527 37.688C259.527 36.44 260.943 36.104 262.167 36.104C263.487 36.104 264.927 36.608 265.047 38.192H267.087C266.895 35.168 264.783 34.304 261.999 34.304C259.815 34.304 257.367 35.336 257.367 37.832C257.367 42.608 265.479 40.448 265.479 43.64C265.479 45.2 263.751 45.488 262.479 45.488C260.823 45.488 259.215 44.912 259.143 43.088H257.103ZM270.015 47H272.055V29.864H270.015V47ZM276.704 39.608C276.824 37.688 278.144 36.104 280.256 36.104C282.296 36.104 283.712 37.664 283.832 39.608H276.704ZM283.784 43.064C283.424 44.696 282.272 45.488 280.568 45.488C277.856 45.488 276.632 43.568 276.704 41.408H285.992C286.112 38.408 284.768 34.304 280.376 34.304C276.992 34.304 274.544 37.016 274.544 40.76C274.664 44.528 276.536 47.288 280.496 47.288C283.304 47.288 285.248 45.824 285.8 43.064H283.784ZM290.938 30.872H288.898V34.592H286.786V36.392H288.898V44.288C288.898 46.568 289.738 47 291.85 47H293.41V45.2H292.474C291.202 45.2 290.938 45.056 290.938 44.096V36.392H293.41V34.592H290.938V30.872ZM298.509 30.872H296.469V34.592H294.357V36.392H296.469V44.288C296.469 46.568 297.309 47 299.421 47H300.981V45.2H300.045C298.773 45.2 298.509 45.056 298.509 44.096V36.392H300.981V34.592H298.509V30.872ZM304.735 39.608C304.855 37.688 306.175 36.104 308.287 36.104C310.327 36.104 311.743 37.664 311.863 39.608H304.735ZM311.815 43.064C311.455 44.696 310.303 45.488 308.599 45.488C305.887 45.488 304.663 43.568 304.735 41.408H314.023C314.143 38.408 312.799 34.304 308.407 34.304C305.023 34.304 302.575 37.016 302.575 40.76C302.695 44.528 304.567 47.288 308.527 47.288C311.335 47.288 313.279 45.824 313.831 43.064H311.815ZM316.066 47H318.106V41.48C318.106 38.312 319.306 36.464 322.594 36.464V34.304C320.386 34.232 319.018 35.192 318.034 37.208H317.986V34.592H316.066V47Z" fill="white"/>
<path d="M1339.15 31.784H1343.71C1345.7 31.784 1347.36 32.096 1347.36 34.496C1347.36 36.32 1346.3 37.232 1343.71 37.232H1339.15V31.784ZM1336.87 47H1345.15C1348.54 47 1350.36 44.576 1350.36 42.08C1350.36 39.968 1349.21 38.408 1347.1 37.952V37.904C1348.7 37.256 1349.64 35.888 1349.64 34.064C1349.64 32.36 1348.75 31.16 1347.62 30.488C1346.62 29.864 1344.58 29.864 1343.09 29.864H1336.87V47ZM1339.15 39.152H1344.36C1346.28 39.152 1348.08 39.776 1348.08 42.008C1348.08 43.904 1346.86 45.08 1344.86 45.08H1339.15V39.152ZM1363.96 45.368C1363.74 45.44 1363.53 45.488 1363.33 45.488C1362.69 45.488 1362.69 45.056 1362.69 44.096V37.712C1362.69 34.808 1360.26 34.304 1358.03 34.304C1355.25 34.304 1352.89 35.384 1352.77 38.456H1354.81C1354.91 36.632 1356.18 36.104 1357.91 36.104C1359.18 36.104 1360.67 36.368 1360.67 38.168C1360.67 39.728 1358.73 39.536 1356.49 39.992C1354.38 40.376 1352.29 41 1352.29 43.808C1352.29 46.304 1354.14 47.288 1356.4 47.288C1358.13 47.288 1359.64 46.712 1360.77 45.368C1360.77 46.712 1361.44 47.288 1362.49 47.288C1363.09 47.288 1363.6 47.168 1363.96 46.952V45.368ZM1360.65 42.68C1360.65 43.832 1359.54 45.488 1356.85 45.488C1355.61 45.488 1354.45 45.008 1354.45 43.664C1354.45 40.616 1359.06 41.768 1360.65 40.592V42.68ZM1365.86 47H1367.9V39.992C1367.9 37.76 1369.1 36.104 1371.57 36.104C1373.13 36.104 1374.09 37.064 1374.09 38.6V47H1376.13V38.84C1376.13 36.176 1375.12 34.304 1371.86 34.304C1370.06 34.304 1368.69 35.024 1367.82 36.56H1367.78V34.592H1365.86V47ZM1379.31 47H1381.35V42.296L1383.27 40.52L1387.52 47H1390.11L1384.83 39.104L1389.75 34.592H1387.02L1381.35 40.016V29.864H1379.31V47ZM1399.81 40.808C1399.81 37.808 1401.53 36.104 1403.67 36.104C1405.81 36.104 1407.53 37.808 1407.53 40.808C1407.53 43.808 1405.81 45.488 1403.67 45.488C1401.53 45.488 1399.81 43.808 1399.81 40.808ZM1397.65 40.808C1397.65 44.432 1399.73 47.288 1403.67 47.288C1407.61 47.288 1409.69 44.432 1409.69 40.808C1409.69 37.16 1407.61 34.304 1403.67 34.304C1399.73 34.304 1397.65 37.16 1397.65 40.808ZM1412.94 47H1414.98V36.392H1417.38V34.592H1414.98V32.864C1414.98 31.784 1415.55 31.472 1416.54 31.472C1416.9 31.472 1417.33 31.52 1417.69 31.64V29.864C1417.31 29.744 1416.75 29.672 1416.37 29.672C1414.14 29.672 1412.94 30.728 1412.94 32.744V34.592H1410.85V36.392H1412.94V47ZM1428.5 31.784H1433.06C1435.05 31.784 1436.7 32.096 1436.7 34.496C1436.7 36.32 1435.65 37.232 1433.06 37.232H1428.5V31.784ZM1426.22 47H1434.5C1437.88 47 1439.7 44.576 1439.7 42.08C1439.7 39.968 1438.55 38.408 1436.44 37.952V37.904C1438.05 37.256 1438.98 35.888 1438.98 34.064C1438.98 32.36 1438.1 31.16 1436.97 30.488C1435.96 29.864 1433.92 29.864 1432.43 29.864H1426.22V47ZM1428.5 39.152H1433.7C1435.62 39.152 1437.42 39.776 1437.42 42.008C1437.42 43.904 1436.2 45.08 1434.21 45.08H1428.5V39.152ZM1453.3 45.368C1453.09 45.44 1452.87 45.488 1452.68 45.488C1452.03 45.488 1452.03 45.056 1452.03 44.096V37.712C1452.03 34.808 1449.61 34.304 1447.37 34.304C1444.59 34.304 1442.24 35.384 1442.12 38.456H1444.16C1444.25 36.632 1445.53 36.104 1447.25 36.104C1448.53 36.104 1450.01 36.368 1450.01 38.168C1450.01 39.728 1448.07 39.536 1445.84 39.992C1443.73 40.376 1441.64 41 1441.64 43.808C1441.64 46.304 1443.49 47.288 1445.74 47.288C1447.47 47.288 1448.98 46.712 1450.11 45.368C1450.11 46.712 1450.78 47.288 1451.84 47.288C1452.44 47.288 1452.94 47.168 1453.3 46.952V45.368ZM1449.99 42.68C1449.99 43.832 1448.89 45.488 1446.2 45.488C1444.95 45.488 1443.8 45.008 1443.8 43.664C1443.8 40.616 1448.41 41.768 1449.99 40.592V42.68ZM1455.13 47H1457.17V41.48C1457.17 38.312 1458.37 36.464 1461.66 36.464V34.304C1459.45 34.232 1458.08 35.192 1457.1 37.208H1457.05V34.592H1455.13V47ZM1464.68 40.808C1464.68 37.808 1466.41 36.104 1468.54 36.104C1470.68 36.104 1472.41 37.808 1472.41 40.808C1472.41 43.808 1470.68 45.488 1468.54 45.488C1466.41 45.488 1464.68 43.808 1464.68 40.808ZM1462.52 40.808C1462.52 44.432 1464.61 47.288 1468.54 47.288C1472.48 47.288 1474.57 44.432 1474.57 40.808C1474.57 37.16 1472.48 34.304 1468.54 34.304C1464.61 34.304 1462.52 37.16 1462.52 40.808ZM1478.46 40.904C1478.46 38.48 1479.4 36.104 1482.18 36.104C1484.99 36.104 1486.09 38.384 1486.09 40.808C1486.09 43.112 1485.06 45.488 1482.3 45.488C1479.66 45.488 1478.46 43.232 1478.46 40.904ZM1488.06 29.864H1486.02V36.248H1485.97C1485.09 34.784 1483.21 34.304 1481.97 34.304C1478.17 34.304 1476.3 37.256 1476.3 40.76C1476.3 44.264 1478.2 47.288 1482.01 47.288C1483.74 47.288 1485.3 46.688 1485.97 45.32H1486.02V47H1488.06V29.864ZM1502.19 45.368C1501.98 45.44 1501.76 45.488 1501.57 45.488C1500.92 45.488 1500.92 45.056 1500.92 44.096V37.712C1500.92 34.808 1498.5 34.304 1496.26 34.304C1493.48 34.304 1491.13 35.384 1491.01 38.456H1493.05C1493.14 36.632 1494.42 36.104 1496.14 36.104C1497.42 36.104 1498.9 36.368 1498.9 38.168C1498.9 39.728 1496.96 39.536 1494.73 39.992C1492.62 40.376 1490.53 41 1490.53 43.808C1490.53 46.304 1492.38 47.288 1494.63 47.288C1496.36 47.288 1497.87 46.712 1499 45.368C1499 46.712 1499.67 47.288 1500.73 47.288C1501.33 47.288 1501.83 47.168 1502.19 46.952V45.368ZM1498.88 42.68C1498.88 43.832 1497.78 45.488 1495.09 45.488C1493.84 45.488 1492.69 45.008 1492.69 43.664C1492.69 40.616 1497.3 41.768 1498.88 40.592V42.68ZM1524.52 47H1525.96V37.976H1518.45V39.896H1523.92C1524.04 43.04 1521.98 45.488 1518.43 45.488C1514.61 45.488 1512.55 42.224 1512.55 38.648C1512.55 35 1514.27 31.376 1518.43 31.376C1520.99 31.376 1523.06 32.552 1523.51 35.144H1525.79C1525.17 31.136 1522.15 29.456 1518.43 29.456C1513 29.456 1510.27 33.776 1510.27 38.768C1510.27 43.256 1513.31 47.408 1518.43 47.408C1520.42 47.408 1522.58 46.64 1523.92 44.864L1524.52 47ZM1528.91 47H1530.95V41.48C1530.95 38.312 1532.15 36.464 1535.44 36.464V34.304C1533.23 34.232 1531.86 35.192 1530.88 37.208H1530.83V34.592H1528.91V47ZM1538.46 40.808C1538.46 37.808 1540.19 36.104 1542.33 36.104C1544.46 36.104 1546.19 37.808 1546.19 40.808C1546.19 43.808 1544.46 45.488 1542.33 45.488C1540.19 45.488 1538.46 43.808 1538.46 40.808ZM1536.3 40.808C1536.3 44.432 1538.39 47.288 1542.33 47.288C1546.26 47.288 1548.35 44.432 1548.35 40.808C1548.35 37.16 1546.26 34.304 1542.33 34.304C1538.39 34.304 1536.3 37.16 1536.3 40.808ZM1561.03 34.592H1558.99V41.6C1558.99 43.832 1557.79 45.488 1555.31 45.488C1553.75 45.488 1552.79 44.528 1552.79 42.992V34.592H1550.75V42.752C1550.75 45.416 1551.76 47.288 1555.03 47.288C1556.83 47.288 1558.19 46.568 1559.06 45.032H1559.11V47H1561.03V34.592ZM1564.16 51.752H1566.2V45.344H1566.25C1567.14 46.808 1569.01 47.288 1570.26 47.288C1574.05 47.288 1575.92 44.36 1575.92 40.832C1575.92 37.328 1574.03 34.304 1570.21 34.304C1568.48 34.304 1566.92 34.904 1566.25 36.272H1566.2V34.592H1564.16V51.752ZM1573.76 40.688C1573.76 43.112 1572.83 45.488 1570.04 45.488C1567.23 45.488 1566.13 43.208 1566.13 40.784C1566.13 38.48 1567.16 36.104 1569.92 36.104C1572.56 36.104 1573.76 38.36 1573.76 40.688Z" fill="white"/>
<rect x="27.5" y="76.5" width="533" height="67" rx="33.5" stroke="white"/>
<rect x="1335.5" y="76.5" width="278" height="67" rx="33.5" stroke="white"/>
<rect x="1623.5" y="76.5" width="278" height="67" rx="33.5" stroke="white"/>
<rect x="433.5" y="76.5" width="127" height="67" rx="33.5" fill="#F26522" stroke="white"/>
<path d="M61.872 116H73.776V114.08H64.152V108.152H73.056V106.232H64.152V100.784H73.704V98.864H61.872V116ZM76.2079 116H78.2479V108.272C78.2479 107.312 79.1599 105.104 81.5599 105.104C83.3839 105.104 83.8879 106.256 83.8879 107.864V116H85.9279V108.272C85.9279 106.352 87.1759 105.104 89.1679 105.104C91.1599 105.104 91.5679 106.328 91.5679 107.864V116H93.6079V106.904C93.6079 104.336 91.9519 103.304 89.4799 103.304C87.8719 103.304 86.4319 104.072 85.5919 105.416C85.0879 103.88 83.7199 103.304 82.1839 103.304C80.4319 103.304 79.1119 104 78.1759 105.416H78.1279V103.592H76.2079V116ZM107.661 114.368C107.445 114.44 107.229 114.488 107.037 114.488C106.389 114.488 106.389 114.056 106.389 113.096V106.712C106.389 103.808 103.965 103.304 101.733 103.304C98.9488 103.304 96.5968 104.384 96.4768 107.456H98.5168C98.6128 105.632 99.8848 105.104 101.613 105.104C102.885 105.104 104.373 105.368 104.373 107.168C104.373 108.728 102.429 108.536 100.197 108.992C98.0848 109.376 95.9968 110 95.9968 112.808C95.9968 115.304 97.8448 116.288 100.101 116.288C101.829 116.288 103.341 115.712 104.469 114.368C104.469 115.712 105.141 116.288 106.197 116.288C106.797 116.288 107.301 116.168 107.661 115.952V114.368ZM104.349 111.68C104.349 112.832 103.245 114.488 100.557 114.488C99.3088 114.488 98.1568 114.008 98.1568 112.664C98.1568 109.616 102.765 110.768 104.349 109.592V111.68ZM111.719 98.864H109.679V101.36H111.719V98.864ZM109.679 116H111.719V103.592H109.679V116ZM115 116H117.04V98.864H115V116ZM460.072 112.088C460.192 115.16 462.544 116.288 465.328 116.288C467.848 116.288 470.608 115.352 470.608 112.376C470.608 110 468.592 109.304 466.552 108.848C464.656 108.416 462.496 108.128 462.496 106.688C462.496 105.44 463.912 105.104 465.136 105.104C466.456 105.104 467.896 105.608 468.016 107.192H470.056C469.864 104.168 467.752 103.304 464.968 103.304C462.784 103.304 460.336 104.336 460.336 106.832C460.336 111.608 468.448 109.448 468.448 112.64C468.448 114.2 466.72 114.488 465.448 114.488C463.792 114.488 462.184 113.912 462.112 112.088H460.072ZM483.136 103.592H481.096V110.6C481.096 112.832 479.896 114.488 477.424 114.488C475.864 114.488 474.904 113.528 474.904 111.992V103.592H472.864V111.752C472.864 114.416 473.872 116.288 477.136 116.288C478.936 116.288 480.304 115.568 481.168 114.032H481.216V116H483.136V103.592ZM486.272 116H488.312V114.344H488.36C489.248 115.808 491.12 116.288 492.368 116.288C496.16 116.288 498.032 113.36 498.032 109.832C498.032 106.328 496.136 103.304 492.32 103.304C490.592 103.304 489.032 103.904 488.36 105.272H488.312V98.864H486.272V116ZM495.872 109.688C495.872 112.112 494.936 114.488 492.152 114.488C489.344 114.488 488.24 112.208 488.24 109.784C488.24 107.48 489.272 105.104 492.032 105.104C494.672 105.104 495.872 107.36 495.872 109.688ZM500.427 116H502.467V108.272C502.467 107.312 503.379 105.104 505.779 105.104C507.603 105.104 508.107 106.256 508.107 107.864V116H510.147V108.272C510.147 106.352 511.395 105.104 513.387 105.104C515.379 105.104 515.787 106.328 515.787 107.864V116H517.827V106.904C517.827 104.336 516.171 103.304 513.699 103.304C512.091 103.304 510.651 104.072 509.811 105.416C509.307 103.88 507.939 103.304 506.403 103.304C504.651 103.304 503.331 104 502.395 105.416H502.347V103.592H500.427V116ZM523.048 98.864H521.008V101.36H523.048V98.864ZM521.008 116H523.048V103.592H521.008V116ZM529.04 99.872H527V103.592H524.888V105.392H527V113.288C527 115.568 527.84 116 529.952 116H531.512V114.2H530.576C529.304 114.2 529.04 114.056 529.04 113.096V105.392H531.512V103.592H529.04V99.872Z" fill="white" fill-opacity="0.57"/>
<path d="M1383.29 116H1384.73V106.976H1377.22V108.896H1382.69C1382.81 112.04 1380.74 114.488 1377.19 114.488C1373.38 114.488 1371.31 111.224 1371.31 107.648C1371.31 104 1373.04 100.376 1377.19 100.376C1379.76 100.376 1381.82 101.552 1382.28 104.144H1384.56C1383.94 100.136 1380.91 98.456 1377.19 98.456C1371.77 98.456 1369.03 102.776 1369.03 107.768C1369.03 112.256 1372.08 116.408 1377.19 116.408C1379.18 116.408 1381.34 115.64 1382.69 113.864L1383.29 116ZM1387.67 116H1389.71V110.48C1389.71 107.312 1390.91 105.464 1394.2 105.464V103.304C1391.99 103.232 1390.63 104.192 1389.64 106.208H1389.59V103.592H1387.67V116ZM1397.23 109.808C1397.23 106.808 1398.96 105.104 1401.09 105.104C1403.23 105.104 1404.96 106.808 1404.96 109.808C1404.96 112.808 1403.23 114.488 1401.09 114.488C1398.96 114.488 1397.23 112.808 1397.23 109.808ZM1395.07 109.808C1395.07 113.432 1397.16 116.288 1401.09 116.288C1405.03 116.288 1407.12 113.432 1407.12 109.808C1407.12 106.16 1405.03 103.304 1401.09 103.304C1397.16 103.304 1395.07 106.16 1395.07 109.808ZM1419.79 103.592H1417.75V110.6C1417.75 112.832 1416.55 114.488 1414.08 114.488C1412.52 114.488 1411.56 113.528 1411.56 111.992V103.592H1409.52V111.752C1409.52 114.416 1410.53 116.288 1413.79 116.288C1415.59 116.288 1416.96 115.568 1417.82 114.032H1417.87V116H1419.79V103.592ZM1422.93 120.752H1424.97V114.344H1425.02C1425.9 115.808 1427.78 116.288 1429.02 116.288C1432.82 116.288 1434.69 113.36 1434.69 109.832C1434.69 106.328 1432.79 103.304 1428.98 103.304C1427.25 103.304 1425.69 103.904 1425.02 105.272H1424.97V103.592H1422.93V120.752ZM1432.53 109.688C1432.53 112.112 1431.59 114.488 1428.81 114.488C1426 114.488 1424.9 112.208 1424.9 109.784C1424.9 107.48 1425.93 105.104 1428.69 105.104C1431.33 105.104 1432.53 107.36 1432.53 109.688ZM1460.01 103.592H1457.9L1455.11 113.744H1455.07L1452.47 103.592H1450.24L1447.75 113.744H1447.7L1444.89 103.592H1442.63L1446.62 116H1448.83L1451.32 106.136H1451.37L1453.89 116H1456.05L1460.01 103.592ZM1463.44 108.608C1463.56 106.688 1464.88 105.104 1466.99 105.104C1469.03 105.104 1470.45 106.664 1470.57 108.608H1463.44ZM1470.52 112.064C1470.16 113.696 1469.01 114.488 1467.3 114.488C1464.59 114.488 1463.37 112.568 1463.44 110.408H1472.73C1472.85 107.408 1471.5 103.304 1467.11 103.304C1463.73 103.304 1461.28 106.016 1461.28 109.76C1461.4 113.528 1463.27 116.288 1467.23 116.288C1470.04 116.288 1471.98 114.824 1472.53 112.064H1470.52ZM1474.91 116H1476.95V114.344H1477C1477.89 115.808 1479.76 116.288 1481.01 116.288C1484.8 116.288 1486.67 113.36 1486.67 109.832C1486.67 106.328 1484.78 103.304 1480.96 103.304C1479.23 103.304 1477.67 103.904 1477 105.272H1476.95V98.864H1474.91V116ZM1484.51 109.688C1484.51 112.112 1483.58 114.488 1480.79 114.488C1477.98 114.488 1476.88 112.208 1476.88 109.784C1476.88 107.48 1477.91 105.104 1480.67 105.104C1483.31 105.104 1484.51 107.36 1484.51 109.688ZM1488.28 112.088C1488.4 115.16 1490.75 116.288 1493.53 116.288C1496.05 116.288 1498.81 115.352 1498.81 112.376C1498.81 110 1496.8 109.304 1494.76 108.848C1492.86 108.416 1490.7 108.128 1490.7 106.688C1490.7 105.44 1492.12 105.104 1493.34 105.104C1494.66 105.104 1496.1 105.608 1496.22 107.192H1498.26C1498.07 104.168 1495.96 103.304 1493.17 103.304C1490.99 103.304 1488.54 104.336 1488.54 106.832C1488.54 111.608 1496.65 109.448 1496.65 112.64C1496.65 114.2 1494.92 114.488 1493.65 114.488C1492 114.488 1490.39 113.912 1490.32 112.088H1488.28ZM1503.23 98.864H1501.19V101.36H1503.23V98.864ZM1501.19 116H1503.23V103.592H1501.19V116ZM1509.22 99.872H1507.18V103.592H1505.07V105.392H1507.18V113.288C1507.18 115.568 1508.02 116 1510.13 116H1511.69V114.2H1510.76C1509.48 114.2 1509.22 114.056 1509.22 113.096V105.392H1511.69V103.592H1509.22V99.872ZM1515.45 108.608C1515.57 106.688 1516.89 105.104 1519 105.104C1521.04 105.104 1522.45 106.664 1522.57 108.608H1515.45ZM1522.53 112.064C1522.17 113.696 1521.01 114.488 1519.31 114.488C1516.6 114.488 1515.37 112.568 1515.45 110.408H1524.73C1524.85 107.408 1523.51 103.304 1519.12 103.304C1515.73 103.304 1513.29 106.016 1513.29 109.76C1513.41 113.528 1515.28 116.288 1519.24 116.288C1522.05 116.288 1523.99 114.824 1524.54 112.064H1522.53ZM1526.06 112.088C1526.18 115.16 1528.53 116.288 1531.31 116.288C1533.83 116.288 1536.59 115.352 1536.59 112.376C1536.59 110 1534.58 109.304 1532.54 108.848C1530.64 108.416 1528.48 108.128 1528.48 106.688C1528.48 105.44 1529.9 105.104 1531.12 105.104C1532.44 105.104 1533.88 105.608 1534 107.192H1536.04C1535.85 104.168 1533.74 103.304 1530.95 103.304C1528.77 103.304 1526.32 104.336 1526.32 106.832C1526.32 111.608 1534.43 109.448 1534.43 112.64C1534.43 114.2 1532.7 114.488 1531.43 114.488C1529.78 114.488 1528.17 113.912 1528.1 112.088H1526.06Z" fill="white" fill-opacity="0.57"/>
<path d="M1672.2 104.024C1671.7 100.376 1668.72 98.456 1665.14 98.456C1659.86 98.456 1657.03 102.488 1657.03 107.48C1657.03 112.472 1659.65 116.408 1664.95 116.408C1669.3 116.408 1671.91 113.84 1672.37 109.544H1670.09C1669.9 112.376 1668.12 114.488 1665.14 114.488C1661.04 114.488 1659.31 111.224 1659.31 107.312C1659.31 103.736 1661.04 100.376 1665.12 100.376C1667.52 100.376 1669.42 101.6 1669.92 104.024H1672.2ZM1676.34 109.808C1676.34 106.808 1678.07 105.104 1680.21 105.104C1682.34 105.104 1684.07 106.808 1684.07 109.808C1684.07 112.808 1682.34 114.488 1680.21 114.488C1678.07 114.488 1676.34 112.808 1676.34 109.808ZM1674.18 109.808C1674.18 113.432 1676.27 116.288 1680.21 116.288C1684.14 116.288 1686.23 113.432 1686.23 109.808C1686.23 106.16 1684.14 103.304 1680.21 103.304C1676.27 103.304 1674.18 106.16 1674.18 109.808ZM1698.91 103.592H1696.87V110.6C1696.87 112.832 1695.67 114.488 1693.2 114.488C1691.64 114.488 1690.68 113.528 1690.68 111.992V103.592H1688.64V111.752C1688.64 114.416 1689.65 116.288 1692.91 116.288C1694.71 116.288 1696.08 115.568 1696.94 114.032H1696.99V116H1698.91V103.592ZM1701.97 116H1704.01V108.992C1704.01 106.76 1705.21 105.104 1707.69 105.104C1709.25 105.104 1710.21 106.064 1710.21 107.6V116H1712.25V107.84C1712.25 105.176 1711.24 103.304 1707.97 103.304C1706.17 103.304 1704.81 104.024 1703.94 105.56H1703.89V103.592H1701.97V116ZM1718.14 99.872H1716.1V103.592H1713.99V105.392H1716.1V113.288C1716.1 115.568 1716.94 116 1719.05 116H1720.61V114.2H1719.68C1718.41 114.2 1718.14 114.056 1718.14 113.096V105.392H1720.61V103.592H1718.14V99.872ZM1722.81 116H1724.85V110.48C1724.85 107.312 1726.05 105.464 1729.34 105.464V103.304C1727.13 103.232 1725.76 104.192 1724.78 106.208H1724.73V103.592H1722.81V116ZM1741.14 103.592H1738.98L1735.5 113.744H1735.46L1731.83 103.592H1729.53L1734.45 115.928L1733.61 118.04C1733.22 118.784 1732.77 119.168 1731.93 119.168C1731.52 119.168 1731.11 119 1730.73 118.88V120.752C1731.18 120.92 1731.66 120.968 1732.14 120.968C1733.97 120.968 1734.78 120.056 1735.74 117.656L1741.14 103.592ZM1765.8 103.592H1763.69L1760.9 113.744H1760.86L1758.26 103.592H1756.03L1753.54 113.744H1753.49L1750.68 103.592H1748.42L1752.41 116H1754.62L1757.11 106.136H1757.16L1759.68 116H1761.84L1765.8 103.592ZM1769.23 108.608C1769.35 106.688 1770.67 105.104 1772.78 105.104C1774.82 105.104 1776.24 106.664 1776.36 108.608H1769.23ZM1776.31 112.064C1775.95 113.696 1774.8 114.488 1773.09 114.488C1770.38 114.488 1769.16 112.568 1769.23 110.408H1778.52C1778.64 107.408 1777.29 103.304 1772.9 103.304C1769.52 103.304 1767.07 106.016 1767.07 109.76C1767.19 113.528 1769.06 116.288 1773.02 116.288C1775.83 116.288 1777.77 114.824 1778.32 112.064H1776.31ZM1780.7 116H1782.74V114.344H1782.79C1783.68 115.808 1785.55 116.288 1786.8 116.288C1790.59 116.288 1792.46 113.36 1792.46 109.832C1792.46 106.328 1790.57 103.304 1786.75 103.304C1785.02 103.304 1783.46 103.904 1782.79 105.272H1782.74V98.864H1780.7V116ZM1790.3 109.688C1790.3 112.112 1789.37 114.488 1786.58 114.488C1783.77 114.488 1782.67 112.208 1782.67 109.784C1782.67 107.48 1783.7 105.104 1786.46 105.104C1789.1 105.104 1790.3 107.36 1790.3 109.688ZM1794.06 112.088C1794.18 115.16 1796.54 116.288 1799.32 116.288C1801.84 116.288 1804.6 115.352 1804.6 112.376C1804.6 110 1802.58 109.304 1800.54 108.848C1798.65 108.416 1796.49 108.128 1796.49 106.688C1796.49 105.44 1797.9 105.104 1799.13 105.104C1800.45 105.104 1801.89 105.608 1802.01 107.192H1804.05C1803.86 104.168 1801.74 103.304 1798.96 103.304C1796.78 103.304 1794.33 104.336 1794.33 106.832C1794.33 111.608 1802.44 109.448 1802.44 112.64C1802.44 114.2 1800.71 114.488 1799.44 114.488C1797.78 114.488 1796.18 113.912 1796.1 112.088H1794.06ZM1809.02 98.864H1806.98V101.36H1809.02V98.864ZM1806.98 116H1809.02V103.592H1806.98V116ZM1815.01 99.872H1812.97V103.592H1810.86V105.392H1812.97V113.288C1812.97 115.568 1813.81 116 1815.92 116H1817.48V114.2H1816.54C1815.27 114.2 1815.01 114.056 1815.01 113.096V105.392H1817.48V103.592H1815.01V99.872ZM1821.23 108.608C1821.35 106.688 1822.67 105.104 1824.79 105.104C1826.83 105.104 1828.24 106.664 1828.36 108.608H1821.23ZM1828.31 112.064C1827.95 113.696 1826.8 114.488 1825.1 114.488C1822.39 114.488 1821.16 112.568 1821.23 110.408H1830.52C1830.64 107.408 1829.3 103.304 1824.91 103.304C1821.52 103.304 1819.07 106.016 1819.07 109.76C1819.19 113.528 1821.07 116.288 1825.03 116.288C1827.83 116.288 1829.78 114.824 1830.33 112.064H1828.31ZM1831.85 112.088C1831.97 115.16 1834.32 116.288 1837.1 116.288C1839.62 116.288 1842.38 115.352 1842.38 112.376C1842.38 110 1840.37 109.304 1838.33 108.848C1836.43 108.416 1834.27 108.128 1834.27 106.688C1834.27 105.44 1835.69 105.104 1836.91 105.104C1838.23 105.104 1839.67 105.608 1839.79 107.192H1841.83C1841.64 104.168 1839.53 103.304 1836.74 103.304C1834.56 103.304 1832.11 104.336 1832.11 106.832C1832.11 111.608 1840.22 109.448 1840.22 112.64C1840.22 114.2 1838.49 114.488 1837.22 114.488C1835.57 114.488 1833.96 113.912 1833.89 112.088H1831.85Z" fill="white" fill-opacity="0.57"/>
<path d="M1586.17 106.158L1578.17 114.158L1570.17 106.158" stroke="white" stroke-width="2" stroke-linecap="round" stroke-linejoin="round"/>
<path d="M1874.17 106.158L1866.17 114.158L1858.17 106.158" stroke="white" stroke-width="2" stroke-linecap="round" stroke-linejoin="round"/>
</svg>
