<svg width="182" height="28" viewBox="0 0 182 28" fill="none" xmlns="http://www.w3.org/2000/svg">
<rect width="182" height="28" rx="14" fill="#162B75" fill-opacity="0.78"/>
<path d="M54.624 7.576H53.104L50.784 17.08H50.752L48.224 7.576H46.576L44.016 17.08H43.984L41.744 7.576H40.192L43.12 19H44.704L47.344 9.4H47.376L49.984 19H51.568L54.624 7.576ZM55.7885 19H57.1485V15.32C57.1485 13.208 57.9485 11.976 60.1405 11.976V10.536C58.6685 10.488 57.7565 11.128 57.1005 12.472H57.0685V10.728H55.7885V19ZM62.6046 7.576H61.2446V9.24H62.6046V7.576ZM61.2446 19H62.6046V10.728H61.2446V19ZM66.5995 8.248H65.2395V10.728H63.8315V11.928H65.2395V17.192C65.2395 18.712 65.7995 19 67.2075 19H68.2475V17.8H67.6235C66.7755 17.8 66.5995 17.704 66.5995 17.064V11.928H68.2475V10.728H66.5995V8.248ZM70.7504 14.072C70.8304 12.792 71.7104 11.736 73.1184 11.736C74.4784 11.736 75.4224 12.776 75.5024 14.072H70.7504ZM75.4704 16.376C75.2304 17.464 74.4624 17.992 73.3264 17.992C71.5184 17.992 70.7024 16.712 70.7504 15.272H76.9424C77.0224 13.272 76.1264 10.536 73.1984 10.536C70.9424 10.536 69.3104 12.344 69.3104 14.84C69.3904 17.352 70.6384 19.192 73.2784 19.192C75.1504 19.192 76.4464 18.216 76.8144 16.376H75.4704ZM90.1333 17.912C89.9893 17.96 89.8453 17.992 89.7173 17.992C89.2853 17.992 89.2853 17.704 89.2853 17.064V12.808C89.2853 10.872 87.6693 10.536 86.1813 10.536C84.3253 10.536 82.7573 11.256 82.6773 13.304H84.0373C84.1013 12.088 84.9493 11.736 86.1013 11.736C86.9493 11.736 87.9413 11.912 87.9413 13.112C87.9413 14.152 86.6453 14.024 85.1573 14.328C83.7493 14.584 82.3573 15 82.3573 16.872C82.3573 18.536 83.5893 19.192 85.0933 19.192C86.2453 19.192 87.2533 18.808 88.0053 17.912C88.0053 18.808 88.4533 19.192 89.1573 19.192C89.5573 19.192 89.8933 19.112 90.1333 18.968V17.912ZM87.9253 16.12C87.9253 16.888 87.1893 17.992 85.3973 17.992C84.5653 17.992 83.7973 17.672 83.7973 16.776C83.7973 14.744 86.8693 15.512 87.9253 14.728V16.12ZM95.8041 19H97.1641V15.32C97.1641 13.208 97.9641 11.976 100.156 11.976V10.536C98.6841 10.488 97.7721 11.128 97.1161 12.472H97.0841V10.728H95.8041V19ZM102.172 14.072C102.252 12.792 103.132 11.736 104.54 11.736C105.9 11.736 106.844 12.776 106.924 14.072H102.172ZM106.892 16.376C106.652 17.464 105.884 17.992 104.748 17.992C102.94 17.992 102.124 16.712 102.172 15.272H108.364C108.444 13.272 107.548 10.536 104.62 10.536C102.364 10.536 100.732 12.344 100.732 14.84C100.812 17.352 102.06 19.192 104.7 19.192C106.572 19.192 107.868 18.216 108.236 16.376H106.892ZM116.526 10.728H115.102L112.846 17.624H112.814L110.494 10.728H108.974L112.046 19H113.502L116.526 10.728ZM119.214 7.576H117.854V9.24H119.214V7.576ZM117.854 19H119.214V10.728H117.854V19ZM122.313 14.072C122.393 12.792 123.273 11.736 124.681 11.736C126.041 11.736 126.985 12.776 127.065 14.072H122.313ZM127.033 16.376C126.793 17.464 126.025 17.992 124.889 17.992C123.081 17.992 122.265 16.712 122.313 15.272H128.505C128.585 13.272 127.689 10.536 124.761 10.536C122.505 10.536 120.873 12.344 120.873 14.84C120.953 17.352 122.201 19.192 124.841 19.192C126.713 19.192 128.009 18.216 128.377 16.376H127.033ZM140.747 10.728H139.339L137.483 17.496H137.451L135.723 10.728H134.235L132.571 17.496H132.539L130.667 10.728H129.163L131.819 19H133.291L134.955 12.424H134.987L136.667 19H138.107L140.747 10.728Z" fill="white"/>
</svg>
