<svg width="182" height="43" viewBox="0 0 182 43" fill="none" xmlns="http://www.w3.org/2000/svg">
<rect width="182" height="43" rx="21.5" fill="#162B75"/>
<path d="M41.652 13.284H46.212C48.204 13.284 49.86 13.596 49.86 15.996C49.86 17.82 48.804 18.732 46.212 18.732H41.652V13.284ZM39.372 28.5H47.652C51.036 28.5 52.86 26.076 52.86 23.58C52.86 21.468 51.708 19.908 49.596 19.452V19.404C51.204 18.756 52.14 17.388 52.14 15.564C52.14 13.86 51.252 12.66 50.124 11.988C49.116 11.364 47.076 11.364 45.588 11.364H39.372V28.5ZM41.652 20.652H46.86C48.78 20.652 50.58 21.276 50.58 23.508C50.58 25.404 49.356 26.58 47.364 26.58H41.652V20.652ZM65.7377 16.092H63.6977V23.1C63.6977 25.332 62.4977 26.988 60.0257 26.988C58.4657 26.988 57.5057 26.028 57.5057 24.492V16.092H55.4657V24.252C55.4657 26.916 56.4737 28.788 59.7377 28.788C61.5377 28.788 62.9057 28.068 63.7697 26.532H63.8177V28.5H65.7377V16.092ZM79.0736 16.092H76.9136L73.4336 26.244H73.3856L69.7616 16.092H67.4576L72.3776 28.428L71.5376 30.54C71.1536 31.284 70.6976 31.668 69.8576 31.668C69.4496 31.668 69.0416 31.5 68.6576 31.38V33.252C69.1136 33.42 69.5936 33.468 70.0736 33.468C71.8976 33.468 72.7136 32.556 73.6736 30.156L79.0736 16.092ZM89.6413 11.364H87.6013V13.86H89.6413V11.364ZM87.6013 28.5H89.6413V16.092H87.6013V28.5ZM95.6336 12.372H93.5936V16.092H91.4816V17.892H93.5936V25.788C93.5936 28.068 94.4336 28.5 96.5456 28.5H98.1056V26.7H97.1696C95.8976 26.7 95.6336 26.556 95.6336 25.596V17.892H98.1056V16.092H95.6336V12.372ZM101.86 21.108C101.98 19.188 103.3 17.604 105.412 17.604C107.452 17.604 108.868 19.164 108.988 21.108H101.86ZM108.94 24.564C108.58 26.196 107.428 26.988 105.724 26.988C103.012 26.988 101.788 25.068 101.86 22.908H111.148C111.268 19.908 109.924 15.804 105.532 15.804C102.148 15.804 99.6999 18.516 99.6999 22.26C99.8199 26.028 101.692 28.788 105.652 28.788C108.46 28.788 110.404 27.324 110.956 24.564H108.94ZM113.263 28.5H115.303V20.772C115.303 19.812 116.215 17.604 118.615 17.604C120.439 17.604 120.943 18.756 120.943 20.364V28.5H122.983V20.772C122.983 18.852 124.231 17.604 126.223 17.604C128.215 17.604 128.623 18.828 128.623 20.364V28.5H130.663V19.404C130.663 16.836 129.007 15.804 126.535 15.804C124.927 15.804 123.487 16.572 122.647 17.916C122.143 16.38 120.775 15.804 119.239 15.804C117.487 15.804 116.167 16.5 115.231 17.916H115.183V16.092H113.263V28.5ZM132.932 24.588C133.052 27.66 135.404 28.788 138.188 28.788C140.708 28.788 143.468 27.852 143.468 24.876C143.468 22.5 141.452 21.804 139.412 21.348C137.516 20.916 135.355 20.628 135.355 19.188C135.355 17.94 136.772 17.604 137.996 17.604C139.316 17.604 140.756 18.108 140.876 19.692H142.916C142.724 16.668 140.612 15.804 137.828 15.804C135.644 15.804 133.196 16.836 133.196 19.332C133.196 24.108 141.308 21.948 141.308 25.14C141.308 26.7 139.58 26.988 138.308 26.988C136.652 26.988 135.044 26.412 134.972 24.588H132.932Z" fill="white"/>
</svg>
