<svg width="33" height="33" viewBox="0 0 33 33" fill="none" xmlns="http://www.w3.org/2000/svg">
<path d="M16.2202 28.1628C22.8476 28.1628 28.2202 22.7903 28.2202 16.1628C28.2202 9.53542 22.8476 4.16284 16.2202 4.16284C9.5928 4.16284 4.22021 9.53542 4.22021 16.1628C4.22021 22.7903 9.5928 28.1628 16.2202 28.1628Z" stroke="black" stroke-width="2" stroke-miterlimit="10"/>
<path d="M4.90771 12.1628H27.5327" stroke="black" stroke-width="2" stroke-linecap="round" stroke-linejoin="round"/>
<path d="M4.90771 20.1628H27.5327" stroke="black" stroke-width="2" stroke-linecap="round" stroke-linejoin="round"/>
<path d="M16.2202 27.8378C18.9816 27.8378 21.2202 22.6107 21.2202 16.1628C21.2202 9.71487 18.9816 4.48779 16.2202 4.48779C13.4588 4.48779 11.2202 9.71487 11.2202 16.1628C11.2202 22.6107 13.4588 27.8378 16.2202 27.8378Z" stroke="black" stroke-width="2" stroke-miterlimit="10"/>
</svg>
