<svg width="160" height="32" viewBox="0 0 160 32" fill="none" xmlns="http://www.w3.org/2000/svg">
<path d="M32 0H0V32H32V0Z" fill="white"/>
<path d="M16.55 23.8375L22.85 27.8375C23.6625 28.35 24.6625 27.5875 24.425 26.65L22.6 19.475C22.5506 19.2761 22.5585 19.0674 22.6226 18.8728C22.6868 18.6781 22.8046 18.5056 22.9625 18.375L28.6125 13.6625C29.35 13.05 28.975 11.8125 28.0125 11.75L20.6375 11.275C20.4363 11.2633 20.2428 11.1933 20.0808 11.0734C19.9187 10.9535 19.7951 10.789 19.725 10.6L16.975 3.67503C16.9022 3.47491 16.7696 3.30204 16.5952 3.17988C16.4207 3.05772 16.2129 2.99219 16 2.99219C15.787 2.99219 15.5793 3.05772 15.4048 3.17988C15.2304 3.30204 15.0978 3.47491 15.025 3.67503L12.275 10.6C12.2049 10.789 12.0813 10.9535 11.9192 11.0734C11.7572 11.1933 11.5637 11.2633 11.3625 11.275L3.98749 11.75C3.02499 11.8125 2.64999 13.05 3.38749 13.6625L9.0375 18.375C9.19541 18.5056 9.31323 18.6781 9.37736 18.8728C9.4415 19.0674 9.44934 19.2761 9.39999 19.475L7.71249 26.125C7.42499 27.25 8.62499 28.1625 9.58749 27.55L15.45 23.8375C15.6144 23.733 15.8052 23.6775 16 23.6775C16.1948 23.6775 16.3856 23.733 16.55 23.8375Z" fill="#F26522" stroke="#F26522" stroke-width="2" stroke-linecap="round" stroke-linejoin="round"/>
<path d="M64 0H32V32H64V0Z" fill="white"/>
<path d="M48.55 23.8375L54.85 27.8375C55.6625 28.35 56.6625 27.5875 56.425 26.65L54.6 19.475C54.5506 19.2761 54.5585 19.0674 54.6226 18.8728C54.6868 18.6781 54.8046 18.5056 54.9625 18.375L60.6125 13.6625C61.35 13.05 60.975 11.8125 60.0125 11.75L52.6375 11.275C52.4363 11.2633 52.2428 11.1933 52.0808 11.0734C51.9187 10.9535 51.7951 10.789 51.725 10.6L48.975 3.67503C48.9022 3.47491 48.7696 3.30204 48.5952 3.17988C48.4207 3.05772 48.2129 2.99219 48 2.99219C47.787 2.99219 47.5793 3.05772 47.4048 3.17988C47.2304 3.30204 47.0978 3.47491 47.025 3.67503L44.275 10.6C44.2049 10.789 44.0813 10.9535 43.9192 11.0734C43.7572 11.1933 43.5637 11.2633 43.3625 11.275L35.9875 11.75C35.025 11.8125 34.65 13.05 35.3875 13.6625L41.0375 18.375C41.1954 18.5056 41.3132 18.6781 41.3774 18.8728C41.4415 19.0674 41.4493 19.2761 41.4 19.475L39.7125 26.125C39.425 27.25 40.625 28.1625 41.5875 27.55L47.45 23.8375C47.6144 23.733 47.8052 23.6775 48 23.6775C48.1948 23.6775 48.3856 23.733 48.55 23.8375Z" fill="#F26522" stroke="#F26522" stroke-width="2" stroke-linecap="round" stroke-linejoin="round"/>
<path d="M96 0H64V32H96V0Z" fill="white"/>
<path d="M80.55 23.8375L86.85 27.8375C87.6625 28.35 88.6625 27.5875 88.425 26.65L86.6 19.475C86.5506 19.2761 86.5585 19.0674 86.6226 18.8728C86.6868 18.6781 86.8046 18.5056 86.9625 18.375L92.6125 13.6625C93.35 13.05 92.975 11.8125 92.0125 11.75L84.6375 11.275C84.4363 11.2633 84.2428 11.1933 84.0808 11.0734C83.9187 10.9535 83.7951 10.789 83.725 10.6L80.975 3.67503C80.9022 3.47491 80.7696 3.30204 80.5952 3.17988C80.4207 3.05772 80.2129 2.99219 80 2.99219C79.787 2.99219 79.5793 3.05772 79.4048 3.17988C79.2304 3.30204 79.0978 3.47491 79.025 3.67503L76.275 10.6C76.2049 10.789 76.0813 10.9535 75.9192 11.0734C75.7572 11.1933 75.5637 11.2633 75.3625 11.275L67.9875 11.75C67.025 11.8125 66.65 13.05 67.3875 13.6625L73.0375 18.375C73.1954 18.5056 73.3132 18.6781 73.3774 18.8728C73.4415 19.0674 73.4493 19.2761 73.4 19.475L71.7125 26.125C71.425 27.25 72.625 28.1625 73.5875 27.55L79.45 23.8375C79.6144 23.733 79.8052 23.6775 80 23.6775C80.1948 23.6775 80.3856 23.733 80.55 23.8375Z" fill="#F26522" stroke="#F26522" stroke-width="2" stroke-linecap="round" stroke-linejoin="round"/>
<path d="M128 0H96V32H128V0Z" fill="white"/>
<path d="M112.55 23.8375L118.85 27.8375C119.662 28.35 120.662 27.5875 120.425 26.65L118.6 19.475C118.551 19.2761 118.558 19.0674 118.623 18.8728C118.687 18.6781 118.805 18.5056 118.962 18.375L124.612 13.6625C125.35 13.05 124.975 11.8125 124.012 11.75L116.637 11.275C116.436 11.2633 116.243 11.1933 116.081 11.0734C115.919 10.9535 115.795 10.789 115.725 10.6L112.975 3.67503C112.902 3.47491 112.77 3.30204 112.595 3.17988C112.421 3.05772 112.213 2.99219 112 2.99219C111.787 2.99219 111.579 3.05772 111.405 3.17988C111.23 3.30204 111.098 3.47491 111.025 3.67503L108.275 10.6C108.205 10.789 108.081 10.9535 107.919 11.0734C107.757 11.1933 107.564 11.2633 107.362 11.275L99.9875 11.75C99.025 11.8125 98.65 13.05 99.3875 13.6625L105.037 18.375C105.195 18.5056 105.313 18.6781 105.377 18.8728C105.441 19.0674 105.449 19.2761 105.4 19.475L103.712 26.125C103.425 27.25 104.625 28.1625 105.587 27.55L111.45 23.8375C111.614 23.733 111.805 23.6775 112 23.6775C112.195 23.6775 112.386 23.733 112.55 23.8375Z" fill="#F26522" stroke="#F26522" stroke-width="2" stroke-linecap="round" stroke-linejoin="round"/>
<path d="M160 0H128V32H160V0Z" fill="white"/>
<path d="M144.55 23.8375L150.85 27.8375C151.662 28.35 152.662 27.5875 152.425 26.65L150.6 19.475C150.551 19.2761 150.558 19.0674 150.623 18.8728C150.687 18.6781 150.805 18.5056 150.962 18.375L156.612 13.6625C157.35 13.05 156.975 11.8125 156.012 11.75L148.637 11.275C148.436 11.2633 148.243 11.1933 148.081 11.0734C147.919 10.9535 147.795 10.789 147.725 10.6L144.975 3.67503C144.902 3.47491 144.77 3.30204 144.595 3.17988C144.421 3.05772 144.213 2.99219 144 2.99219C143.787 2.99219 143.579 3.05772 143.405 3.17988C143.23 3.30204 143.098 3.47491 143.025 3.67503L140.275 10.6C140.205 10.789 140.081 10.9535 139.919 11.0734C139.757 11.1933 139.564 11.2633 139.362 11.275L131.987 11.75C131.025 11.8125 130.65 13.05 131.387 13.6625L137.037 18.375C137.195 18.5056 137.313 18.6781 137.377 18.8728C137.441 19.0674 137.449 19.2761 137.4 19.475L135.712 26.125C135.425 27.25 136.625 28.1625 137.587 27.55L143.45 23.8375C143.614 23.733 143.805 23.6775 144 23.6775C144.195 23.6775 144.386 23.733 144.55 23.8375Z" fill="white" stroke="#F26522" stroke-width="2" stroke-linecap="round" stroke-linejoin="round"/>
</svg>
