<svg width="73" height="73" viewBox="0 0 73 73" fill="none" xmlns="http://www.w3.org/2000/svg">
<path d="M47.8836 49.7816H23.8413C23.2036 49.7816 22.5921 49.5283 22.1412 49.0774C21.6903 48.6265 21.437 48.015 21.437 47.3774V30.5477C21.437 29.9101 21.6903 29.2985 22.1412 28.8477C22.5921 28.3968 23.2036 28.1435 23.8413 28.1435H28.6497L31.054 24.5371H40.6709L43.0752 28.1435H47.8836C48.5213 28.1435 49.1328 28.3968 49.5837 28.8477C50.0346 29.2985 50.2879 29.9101 50.2879 30.5477V47.3774C50.2879 48.015 50.0346 48.6265 49.5837 49.0774C49.1328 49.5283 48.5213 49.7816 47.8836 49.7816Z" stroke="#696969" stroke-width="2" stroke-linecap="round" stroke-linejoin="round"/>
<path d="M35.8624 43.7712C38.85 43.7712 41.272 41.3493 41.272 38.3617C41.272 35.3741 38.85 32.9521 35.8624 32.9521C32.8748 32.9521 30.4529 35.3741 30.4529 38.3617C30.4529 41.3493 32.8748 43.7712 35.8624 43.7712Z" stroke="#696969" stroke-width="2" stroke-linecap="round" stroke-linejoin="round"/>
<circle cx="51.536" cy="49.3253" r="9.33509" fill="white"/>
<path d="M51.5361 56.4046C55.2762 56.4046 58.3082 53.3726 58.3082 49.6325C58.3082 45.8923 55.2762 42.8604 51.5361 42.8604C47.7959 42.8604 44.7639 45.8923 44.7639 49.6325C44.7639 53.3726 47.7959 56.4046 51.5361 56.4046Z" stroke="#696969" stroke-width="2" stroke-miterlimit="10"/>
<path d="M48.7144 49.6318H54.3578" stroke="#696969" stroke-width="2" stroke-linecap="round" stroke-linejoin="round"/>
<path d="M51.5361 46.8096V52.453" stroke="#696969" stroke-width="2" stroke-linecap="round" stroke-linejoin="round"/>
<circle cx="36.4934" cy="36.5688" r="34.9956" stroke="#696969" stroke-width="2"/>
</svg>
