<svg width="33" height="33" viewBox="0 0 33 33" fill="none" xmlns="http://www.w3.org/2000/svg">
<path d="M11.7827 15.7629C12.8117 17.8879 14.5301 19.6018 16.6577 20.6254C16.8147 20.6997 16.9883 20.7319 17.1614 20.7187C17.3346 20.7056 17.5013 20.6475 17.6452 20.5504L20.7702 18.4629C20.9083 18.3692 21.0678 18.3121 21.2339 18.2968C21.4001 18.2815 21.5674 18.3085 21.7202 18.3754L27.5702 20.8879C27.7702 20.9711 27.9372 21.1177 28.0456 21.3052C28.154 21.4927 28.1978 21.7106 28.1702 21.9254C27.9848 23.3726 27.2784 24.7026 26.1833 25.6666C25.0881 26.6306 23.6792 27.1626 22.2202 27.1629C17.7115 27.1629 13.3875 25.3718 10.1994 22.1837C7.01128 18.9956 5.22021 14.6716 5.22021 10.1629C5.22054 8.70388 5.75248 7.29498 6.7165 6.19983C7.68051 5.10467 9.01054 4.3983 10.4577 4.21288C10.6725 4.18529 10.8904 4.22908 11.0779 4.33749C11.2654 4.44591 11.412 4.61295 11.4952 4.81288L14.0077 10.6754C14.0731 10.8258 14.1004 10.99 14.0873 11.1535C14.0742 11.317 14.0211 11.4747 13.9327 11.6129L11.8452 14.7879C11.7523 14.9315 11.6977 15.0965 11.6868 15.2672C11.6758 15.4379 11.7089 15.6086 11.7827 15.7629V15.7629Z" stroke="black" stroke-width="2" stroke-linecap="round" stroke-linejoin="round"/>
</svg>
