<svg width="70" height="66" viewBox="0 0 70 66" fill="none" xmlns="http://www.w3.org/2000/svg">
<path fill-rule="evenodd" clip-rule="evenodd" d="M35.4168 66C54.5167 66 70.0002 51.2254 70.0002 33C70.0002 14.7746 54.5167 0 35.4168 0C16.317 0 0.833496 14.7746 0.833496 33C0.833496 51.2254 16.317 66 35.4168 66ZM30.9911 37.6933C33.8279 37.6933 35.2791 39.963 36.5196 42.2125C35.7284 42.4288 34.8636 42.5223 33.9134 42.5223C27.9237 42.5223 25.3294 38.6228 25.3294 30.9888C25.3294 23.3108 27.9217 19.3728 33.9134 19.3728C39.9926 19.3728 42.5928 23.3108 42.5928 30.9888C42.5928 34.0615 42.1575 36.542 41.245 38.3772C39.6983 36.2285 37.7482 34.5382 33.9551 34.5382C31.5179 34.5382 29.6214 35.2752 28.4485 36.2083L29.4107 37.9812C29.9057 37.7777 30.4523 37.6933 30.9911 37.6933ZM33.9114 45.3933C35.2937 45.3911 36.6698 45.2223 38.0046 44.891L37.9907 44.924C39.5552 47.399 41.6346 49.5 45.5887 49.5C52.0953 49.5 52.8328 43.956 52.6936 42.6177H50.3737C50.2405 43.6242 49.5209 44.8837 47.7337 44.8837C46.0817 44.8837 44.9187 43.8295 43.7816 42.251C47.3222 39.721 49.7594 35.8068 49.7594 30.9888C49.7594 22.3282 42.0243 16.5 33.9114 16.5C25.9317 16.5 18.127 22.3722 18.125 30.987C18.125 39.523 25.9317 45.3933 33.9114 45.3933Z" fill="#F26522"/>
</svg>
