<svg width="33" height="33" viewBox="0 0 33 33" fill="none" xmlns="http://www.w3.org/2000/svg">
<path d="M0.919434 17.2188V31.4375C0.919434 32.129 1.47803 32.6875 2.16943 32.6875H4.7085V15.9688H2.16943C1.47803 15.9688 0.919434 16.5274 0.919434 17.2188ZM31.1499 17.4415C31.8062 16.5743 32.1694 15.5118 32.1694 14.4063C32.1694 12.6524 31.189 10.9883 29.6108 10.0704C29.2046 9.83206 28.742 9.70664 28.271 9.70708H18.8999L19.1343 4.90629C19.1929 3.74614 18.7827 2.64458 17.9819 1.80473C17.5912 1.39037 17.1194 1.06074 16.596 0.836307C16.0725 0.611871 15.5085 0.497415 14.939 0.500044C12.9077 0.500044 11.1108 1.86723 10.5718 3.82426L7.22021 15.9649L7.2085 32.6836H25.6499C26.0132 32.6836 26.3608 32.6133 26.6851 32.4727C28.5444 31.6797 29.7437 29.8633 29.7437 27.8477C29.7437 27.3555 29.6733 26.8711 29.5327 26.4024C30.189 25.5352 30.5522 24.4727 30.5522 23.3672C30.5522 22.875 30.4819 22.3907 30.3413 21.9219C30.9976 21.0547 31.3608 19.9922 31.3608 18.8868C31.3608 18.3946 31.2905 17.9102 31.1499 17.4415ZM28.5913 16.086L27.7358 16.8282L28.2827 17.8243C28.4616 18.1511 28.5544 18.5181 28.5522 18.8907C28.5522 19.5352 28.2749 20.1485 27.7866 20.5704L26.9312 21.3125L27.4741 22.3047C27.653 22.6316 27.7458 22.9986 27.7437 23.3711C27.7437 24.0157 27.4663 24.629 26.978 25.0508L26.1226 25.793L26.6655 26.7852C26.8444 27.112 26.9372 27.479 26.9351 27.8516C26.9351 28.7266 26.4194 29.5157 25.6226 29.875H10.021V16.3907C10.7476 13.7657 11.8335 9.82817 13.2827 4.57426C13.384 4.21391 13.5994 3.89613 13.8966 3.66862C14.1938 3.44112 14.5569 3.31617 14.9312 3.31254C15.2241 3.30864 15.5171 3.39848 15.7554 3.57426C16.1421 3.86333 16.3491 4.30083 16.3257 4.76567L15.9507 12.5157H28.2319C28.9272 12.9415 29.3569 13.6602 29.3569 14.4063C29.3569 15.0508 29.0796 15.6641 28.5913 16.086Z" fill="#4B4B4B"/>
</svg>
