<svg width="70" height="66" viewBox="0 0 70 66" fill="none" xmlns="http://www.w3.org/2000/svg">
<path d="M35.0833 0C15.9853 0 0.5 14.7763 0.5 33C0.5 51.2237 15.9853 66 35.0833 66C54.1814 66 69.6667 51.2237 69.6667 33C69.6667 14.7763 54.1814 0 35.0833 0ZM51.7034 24.8752C51.7266 25.2214 51.7266 25.5824 51.7266 25.9359C51.7266 36.7493 43.0962 49.2054 27.3252 49.2054C22.462 49.2054 17.9538 47.8574 14.1558 45.5371C14.8505 45.6107 15.5144 45.6402 16.2246 45.6402C20.2387 45.6402 23.9287 44.3438 26.8698 42.1487C23.1027 42.075 19.9377 39.7179 18.857 36.4768C20.177 36.6609 21.3658 36.6609 22.7244 36.3295C20.7847 35.9534 19.0413 34.9482 17.7902 33.4846C16.5392 32.0209 15.8578 30.1892 15.8618 28.3004V28.1973C16.9966 28.8087 18.332 29.1844 19.7293 29.2359C18.5547 28.489 17.5914 27.477 16.9249 26.2897C16.2583 25.1025 15.9091 23.7766 15.9081 22.4297C15.9081 20.9049 16.325 19.5127 17.0738 18.3047C19.2267 20.8337 21.9133 22.9022 24.9589 24.3756C28.0045 25.8489 31.341 26.6943 34.7514 26.8567C33.5394 21.2953 37.8932 16.7946 43.127 16.7946C45.5973 16.7946 47.8205 17.7817 49.3876 19.3728C51.3251 19.0266 53.1778 18.3342 54.8298 17.406C54.1891 19.2991 52.8459 20.8975 51.0627 21.9067C52.7919 21.7299 54.4593 21.2732 56.0032 20.6324C54.8375 22.2676 53.3785 23.7188 51.7034 24.8752Z" fill="#F26522"/>
</svg>
