<svg width="649" height="94" viewBox="0 0 649 94" fill="none" xmlns="http://www.w3.org/2000/svg">
<path d="M43.8179 0.727998H39.2579L32.2979 29.24H32.2019L24.6179 0.727998H19.6739L11.9939 29.24H11.8979L5.17786 0.727998H0.521862L9.30586 35H14.0579L21.9779 6.2H22.0739L29.8979 35H34.6499L43.8179 0.727998ZM50.4314 20.216C50.6714 16.376 53.3114 13.208 57.5354 13.208C61.6154 13.208 64.4474 16.328 64.6874 20.216H50.4314ZM64.5914 27.128C63.8714 30.392 61.5674 31.976 58.1594 31.976C52.7354 31.976 50.2874 28.136 50.4314 23.816H69.0074C69.2474 17.816 66.5594 9.608 57.7754 9.608C51.0074 9.608 46.1114 15.032 46.1114 22.52C46.3514 30.056 50.0954 35.576 58.0154 35.576C63.6314 35.576 67.5194 32.648 68.6234 27.128H64.5914ZM73.4766 35H77.5566V0.727998H73.4766V35ZM104.949 18.152C104.325 12.248 99.9092 9.608 94.2452 9.608C86.3732 9.608 82.5332 15.464 82.5332 22.904C82.5332 30.344 86.5652 35.576 94.1492 35.576C100.437 35.576 104.181 32.024 105.093 25.928H100.917C100.389 29.72 98.0852 31.976 94.1012 31.976C88.9172 31.976 86.8532 27.512 86.8532 22.904C86.8532 17.912 88.6772 13.208 94.5812 13.208C97.9892 13.208 100.101 15.032 100.725 18.152H104.949ZM112.634 22.616C112.634 16.616 116.09 13.208 120.362 13.208C124.634 13.208 128.09 16.616 128.09 22.616C128.09 28.616 124.634 31.976 120.362 31.976C116.09 31.976 112.634 28.616 112.634 22.616ZM108.314 22.616C108.314 29.864 112.49 35.576 120.362 35.576C128.234 35.576 132.41 29.864 132.41 22.616C132.41 15.32 128.234 9.608 120.362 9.608C112.49 9.608 108.314 15.32 108.314 22.616ZM137.221 35H141.301V19.544C141.301 17.624 143.125 13.208 147.925 13.208C151.573 13.208 152.581 15.512 152.581 18.728V35H156.661V19.544C156.661 15.704 159.157 13.208 163.141 13.208C167.125 13.208 167.941 15.656 167.941 18.728V35H172.021V16.808C172.021 11.672 168.709 9.608 163.765 9.608C160.549 9.608 157.669 11.144 155.989 13.832C154.981 10.76 152.245 9.608 149.173 9.608C145.669 9.608 143.029 11 141.157 13.832H141.061V10.184H137.221V35ZM181.119 20.216C181.359 16.376 183.999 13.208 188.223 13.208C192.303 13.208 195.135 16.328 195.375 20.216H181.119ZM195.279 27.128C194.559 30.392 192.255 31.976 188.847 31.976C183.423 31.976 180.975 28.136 181.119 23.816H199.695C199.935 17.816 197.247 9.608 188.463 9.608C181.695 9.608 176.799 15.032 176.799 22.52C177.039 30.056 180.783 35.576 188.703 35.576C194.319 35.576 198.207 32.648 199.311 27.128H195.279ZM222.947 2.744H218.867V10.184H214.643V13.784H218.867V29.576C218.867 34.136 220.547 35 224.771 35H227.891V31.4H226.019C223.475 31.4 222.947 31.112 222.947 29.192V13.784H227.891V10.184H222.947V2.744ZM235.4 22.616C235.4 16.616 238.856 13.208 243.128 13.208C247.4 13.208 250.856 16.616 250.856 22.616C250.856 28.616 247.4 31.976 243.128 31.976C238.856 31.976 235.4 28.616 235.4 22.616ZM231.08 22.616C231.08 29.864 235.256 35.576 243.128 35.576C251 35.576 255.176 29.864 255.176 22.616C255.176 15.32 251 9.608 243.128 9.608C235.256 9.608 231.08 15.32 231.08 22.616ZM279.922 5.624H289.714C292.978 5.624 294.754 6.872 294.754 10.328C294.754 13.4 292.594 15.08 289.714 15.08H279.922V5.624ZM273.922 35H289.666C298.546 35 302.29 30.824 302.29 25.448C302.29 20.792 300.082 17.528 295.858 16.616V16.52C298.978 15.176 300.754 12.68 300.754 9.224C300.754 3.512 296.722 0.727998 290.578 0.727998H273.922V35ZM279.922 19.4H290.53C294.178 19.4 296.29 21.272 296.29 24.68C296.29 28.136 294.178 30.104 290.53 30.104H279.922V19.4ZM327.735 16.712C327.735 11.48 322.647 9.512 317.799 9.512C312.279 9.512 306.903 11.384 306.519 17.768H311.991C312.231 15.08 314.391 13.832 317.463 13.832C319.623 13.832 322.599 14.312 322.599 17.192C322.599 20.456 319.143 19.928 315.159 20.696C310.551 21.224 305.607 22.232 305.607 28.424C305.607 33.272 309.639 35.672 314.103 35.672C317.031 35.672 320.535 34.76 322.695 32.648C323.127 34.904 324.663 35.672 326.919 35.672C327.831 35.672 329.559 35.336 330.375 35.048V31.256C330.087 31.304 329.847 31.352 329.607 31.352H329.031C328.023 31.352 327.735 30.824 327.735 29.48V16.712ZM322.263 26.648C322.263 30.104 318.519 31.352 316.119 31.352C314.199 31.352 311.079 30.68 311.079 28.184C311.079 25.304 313.191 24.44 315.543 24.056C317.991 23.624 320.583 23.672 322.263 22.568V26.648ZM333.623 35H339.095V20.36C339.095 16.712 341.447 13.832 345.095 13.832C348.359 13.832 349.799 15.512 349.943 19.4V35H355.415V17.96C355.415 12.344 352.055 9.512 346.631 9.512C343.367 9.512 340.583 11.192 338.903 13.928L338.807 13.832V10.184H333.623V35ZM361.329 35H366.801V26.12L370.065 22.952L377.649 35H384.321L373.905 19.304L383.409 10.184H376.689L366.801 20.216V0.727998H361.329V35ZM411.702 35.672C419.622 35.672 424.23 30.2 424.23 22.568C424.23 15.032 419.622 9.512 411.702 9.512C403.782 9.512 399.174 15.032 399.174 22.568C399.174 30.2 403.782 35.672 411.702 35.672ZM411.702 31.352C406.806 31.352 404.646 26.888 404.646 22.568C404.646 18.296 406.806 13.832 411.702 13.832C416.598 13.832 418.758 18.296 418.758 22.568C418.758 26.888 416.598 31.352 411.702 31.352ZM426.331 14.264H430.411V35H435.883V14.264H440.539V10.184H435.883V7.64C435.883 5.576 437.083 5.048 438.571 5.048C439.675 5.048 440.395 5.144 441.115 5.336V1.064C440.299 0.823999 439.051 0.727998 437.275 0.727998C433.723 0.727998 430.411 1.784 430.411 8.12V10.184H426.331V14.264ZM464.047 5.624H473.839C477.103 5.624 478.879 6.872 478.879 10.328C478.879 13.4 476.719 15.08 473.839 15.08H464.047V5.624ZM458.047 35H473.791C482.671 35 486.415 30.824 486.415 25.448C486.415 20.792 484.207 17.528 479.983 16.616V16.52C483.103 15.176 484.879 12.68 484.879 9.224C484.879 3.512 480.847 0.727998 474.703 0.727998H458.047V35ZM464.047 19.4H474.655C478.303 19.4 480.415 21.272 480.415 24.68C480.415 28.136 478.303 30.104 474.655 30.104H464.047V19.4ZM511.86 16.712C511.86 11.48 506.772 9.512 501.924 9.512C496.404 9.512 491.028 11.384 490.644 17.768H496.116C496.356 15.08 498.516 13.832 501.588 13.832C503.748 13.832 506.724 14.312 506.724 17.192C506.724 20.456 503.268 19.928 499.284 20.696C494.676 21.224 489.732 22.232 489.732 28.424C489.732 33.272 493.764 35.672 498.228 35.672C501.156 35.672 504.66 34.76 506.82 32.648C507.252 34.904 508.788 35.672 511.044 35.672C511.956 35.672 513.684 35.336 514.5 35.048V31.256C514.212 31.304 513.972 31.352 513.732 31.352H513.156C512.148 31.352 511.86 30.824 511.86 29.48V16.712ZM506.388 26.648C506.388 30.104 502.644 31.352 500.244 31.352C498.324 31.352 495.204 30.68 495.204 28.184C495.204 25.304 497.316 24.44 499.668 24.056C502.116 23.624 504.708 23.672 506.388 22.568V26.648ZM517.748 35H523.22V23.192C523.22 17.672 526.244 14.696 529.94 14.696C530.708 14.696 531.524 14.792 532.292 14.936V9.656C531.764 9.608 531.524 9.512 530.228 9.512C526.916 9.512 523.604 12.344 522.98 14.984H522.884V10.184H517.748V35ZM545.155 35.672C553.075 35.672 557.683 30.2 557.683 22.568C557.683 15.032 553.075 9.512 545.155 9.512C537.235 9.512 532.627 15.032 532.627 22.568C532.627 30.2 537.235 35.672 545.155 35.672ZM545.155 31.352C540.259 31.352 538.099 26.888 538.099 22.568C538.099 18.296 540.259 13.832 545.155 13.832C550.051 13.832 552.211 18.296 552.211 22.568C552.211 26.888 550.051 31.352 545.155 31.352ZM585.608 0.727998H580.136V13.4H580.04C578.36 10.664 574.856 9.512 571.784 9.512C566.36 9.512 561.032 13.4 561.032 22.424C561.032 29.864 564.824 35.672 572.648 35.672C575.768 35.672 578.84 34.52 580.328 31.64H580.424V35H585.608V0.727998ZM566.504 22.856C566.504 18.44 568.328 13.832 573.464 13.832C577.688 13.832 580.328 17.048 580.328 22.568C580.328 26.888 578.216 31.352 573.368 31.352C568.616 31.352 566.504 27.128 566.504 22.856ZM612.36 16.712C612.36 11.48 607.272 9.512 602.424 9.512C596.904 9.512 591.528 11.384 591.144 17.768H596.616C596.856 15.08 599.016 13.832 602.088 13.832C604.248 13.832 607.224 14.312 607.224 17.192C607.224 20.456 603.768 19.928 599.784 20.696C595.176 21.224 590.232 22.232 590.232 28.424C590.232 33.272 594.264 35.672 598.728 35.672C601.656 35.672 605.16 34.76 607.32 32.648C607.752 34.904 609.288 35.672 611.544 35.672C612.456 35.672 614.184 35.336 615 35.048V31.256C614.712 31.304 614.472 31.352 614.232 31.352H613.656C612.648 31.352 612.36 30.824 612.36 29.48V16.712ZM606.888 26.648C606.888 30.104 603.144 31.352 600.744 31.352C598.824 31.352 595.704 30.68 595.704 28.184C595.704 25.304 597.816 24.44 600.168 24.056C602.616 23.624 605.208 23.672 606.888 22.568V26.648ZM619.064 14.264C622.76 13.736 625.064 10.904 625.064 7.208V0.727998H619.064V7.208H621.992C621.992 9.32 621.368 11.144 619.064 11.48V14.264ZM626.701 27.032C626.845 32.888 631.405 35.672 637.693 35.672C642.829 35.672 648.781 33.512 648.781 27.608C648.781 22.712 644.749 21.272 640.765 20.36C636.733 19.496 632.701 19.064 632.701 16.376C632.701 14.216 635.629 13.832 637.213 13.832C639.661 13.832 641.725 14.504 642.253 17.144H647.965C647.341 11.576 642.685 9.512 637.597 9.512C633.085 9.512 627.229 11.192 627.229 16.616C627.229 21.656 631.165 23.096 635.197 23.96C639.181 24.872 643.165 25.208 643.309 28.088C643.453 30.92 639.901 31.352 637.789 31.352C634.861 31.352 632.509 30.248 632.173 27.032H626.701ZM161.256 81.576C161.4 90.072 167.736 93.816 175.56 93.816C182.328 93.816 189.192 90.744 189.192 83.064C189.192 79.416 186.984 75.72 182.52 74.328C180.744 73.8 173.16 71.832 172.632 71.688C170.184 70.968 168.552 69.72 168.552 67.272C168.552 63.816 172.056 62.808 174.84 62.808C179.016 62.808 181.896 64.44 182.232 68.856H188.232C188.232 61.704 182.184 57.912 175.08 57.912C168.888 57.912 162.552 61.08 162.552 67.992C162.552 71.544 164.232 75.144 170.136 76.68C174.888 77.976 177.912 78.6 180.36 79.512C181.752 80.04 183.192 81.096 183.192 83.736C183.192 86.28 181.224 88.92 175.944 88.92C171.144 88.92 167.256 86.808 167.256 81.576H161.256ZM191.181 72.264H195.309V86.904C195.453 91.032 196.413 93.24 202.173 93.24C203.373 93.24 204.525 93.096 205.725 92.952V88.728C204.957 88.92 204.189 88.92 203.421 88.92C200.973 88.92 200.781 87.768 200.781 85.512V72.264H205.725V68.184H200.781V60.744H195.309V68.184H191.181V72.264ZM230.446 74.712C230.446 69.48 225.358 67.512 220.51 67.512C214.99 67.512 209.614 69.384 209.23 75.768H214.702C214.942 73.08 217.102 71.832 220.174 71.832C222.334 71.832 225.31 72.312 225.31 75.192C225.31 78.456 221.854 77.928 217.87 78.696C213.262 79.224 208.318 80.232 208.318 86.424C208.318 91.272 212.35 93.672 216.814 93.672C219.742 93.672 223.246 92.76 225.406 90.648C225.838 92.904 227.374 93.672 229.63 93.672C230.542 93.672 232.27 93.336 233.086 93.048V89.256C232.798 89.304 232.558 89.352 232.318 89.352H231.742C230.734 89.352 230.446 88.824 230.446 87.48V74.712ZM224.974 84.648C224.974 88.104 221.23 89.352 218.83 89.352C216.91 89.352 213.79 88.68 213.79 86.184C213.79 83.304 215.902 82.44 218.254 82.056C220.702 81.624 223.294 81.672 224.974 80.568V84.648ZM236.334 93H241.806V81.192C241.806 75.672 244.83 72.696 248.526 72.696C249.294 72.696 250.11 72.792 250.878 72.936V67.656C250.35 67.608 250.11 67.512 248.814 67.512C245.502 67.512 242.19 70.344 241.566 72.984H241.47V68.184H236.334V93ZM250.713 72.264H254.841V86.904C254.985 91.032 255.945 93.24 261.705 93.24C262.905 93.24 264.057 93.096 265.257 92.952V88.728C264.489 88.92 263.721 88.92 262.953 88.92C260.505 88.92 260.313 87.768 260.313 85.512V72.264H265.257V68.184H260.313V60.744H254.841V68.184H250.713V72.264ZM269.577 80.664C269.577 89.448 275.193 93.816 283.641 93.816C292.089 93.816 297.705 89.448 297.705 80.664V58.728H291.705V78.696C291.705 83.304 291.417 88.632 283.641 88.632C275.865 88.632 275.577 83.304 275.577 78.696V58.728H269.577V80.664ZM304.602 93H310.602V79.848H319.722C329.514 79.848 331.386 73.608 331.386 69.336C331.386 65.064 329.514 58.728 319.722 58.728H304.602V93ZM310.602 63.624H319.482C322.65 63.624 325.386 64.776 325.386 69.288C325.386 73.608 322.074 74.952 319.386 74.952H310.602V63.624ZM349.977 93H355.977V79.848H365.097C374.889 79.848 376.761 73.608 376.761 69.336C376.761 65.064 374.889 58.728 365.097 58.728H349.977V93ZM355.977 63.624H364.857C368.025 63.624 370.761 64.776 370.761 69.288C370.761 73.608 367.449 74.952 364.761 74.952H355.977V63.624ZM392.6 93.672C400.52 93.672 405.128 88.2 405.128 80.568C405.128 73.032 400.52 67.512 392.6 67.512C384.68 67.512 380.072 73.032 380.072 80.568C380.072 88.2 384.68 93.672 392.6 93.672ZM392.6 89.352C387.704 89.352 385.544 84.888 385.544 80.568C385.544 76.296 387.704 71.832 392.6 71.832C397.496 71.832 399.656 76.296 399.656 80.568C399.656 84.888 397.496 89.352 392.6 89.352ZM409.677 93H415.149V81.192C415.149 75.672 418.173 72.696 421.869 72.696C422.637 72.696 423.453 72.792 424.221 72.936V67.656C423.693 67.608 423.453 67.512 422.157 67.512C418.845 67.512 415.533 70.344 414.909 72.984H414.813V68.184H409.677V93ZM424.056 72.264H428.184V86.904C428.328 91.032 429.288 93.24 435.048 93.24C436.248 93.24 437.4 93.096 438.6 92.952V88.728C437.832 88.92 437.064 88.92 436.296 88.92C433.848 88.92 433.656 87.768 433.656 85.512V72.264H438.6V68.184H433.656V60.744H428.184V68.184H424.056V72.264ZM463.321 74.712C463.321 69.48 458.233 67.512 453.385 67.512C447.865 67.512 442.489 69.384 442.105 75.768H447.577C447.817 73.08 449.977 71.832 453.049 71.832C455.209 71.832 458.185 72.312 458.185 75.192C458.185 78.456 454.729 77.928 450.745 78.696C446.137 79.224 441.193 80.232 441.193 86.424C441.193 91.272 445.225 93.672 449.689 93.672C452.617 93.672 456.121 92.76 458.281 90.648C458.713 92.904 460.249 93.672 462.505 93.672C463.417 93.672 465.145 93.336 465.961 93.048V89.256C465.673 89.304 465.433 89.352 465.193 89.352H464.617C463.609 89.352 463.321 88.824 463.321 87.48V74.712ZM457.849 84.648C457.849 88.104 454.105 89.352 451.705 89.352C449.785 89.352 446.665 88.68 446.665 86.184C446.665 83.304 448.777 82.44 451.129 82.056C453.577 81.624 456.169 81.672 457.849 80.568V84.648ZM469.353 93H474.825V58.728H469.353V93ZM481.459 93H486.787V87.672H481.459V93ZM486.403 58.728H481.843V69.288L483.043 84.216H485.203L486.403 69.288V58.728Z" fill="white"/>
</svg>
